<svg width="260" height="32" viewBox="0 0 260 32" fill="none" xmlns="http://www.w3.org/2000/svg">
<path d="M48.26 24V9.3H56.9225V11.484H50.444V15.033H55.9145V17.217H50.444V24H48.26ZM65.6985 13.5H67.8825V24H65.688L65.604 22.4775C65.296 23.0165 64.8795 23.4505 64.3545 23.7795C63.8295 24.1085 63.21 24.273 62.496 24.273C61.726 24.273 61.0015 24.1295 60.3225 23.8425C59.6435 23.5485 59.045 23.1425 58.527 22.6245C58.016 22.1065 57.617 21.5115 57.33 20.8395C57.043 20.1605 56.8995 19.4325 56.8995 18.6555C56.8995 17.9065 57.0395 17.203 57.3195 16.545C57.5995 15.88 57.988 15.299 58.485 14.802C58.982 14.305 59.556 13.9165 60.207 13.6365C60.865 13.3495 61.5685 13.206 62.3175 13.206C63.0805 13.206 63.7525 13.381 64.3335 13.731C64.9215 14.074 65.408 14.515 65.793 15.054L65.6985 13.5ZM62.4435 22.1625C63.0595 22.1625 63.5985 22.012 64.0605 21.711C64.5225 21.403 64.8795 20.99 65.1315 20.472C65.3905 19.954 65.52 19.38 65.52 18.75C65.52 18.113 65.3905 17.5355 65.1315 17.0175C64.8725 16.4995 64.512 16.09 64.05 15.789C63.595 15.481 63.0595 15.327 62.4435 15.327C61.8345 15.327 61.278 15.481 60.774 15.789C60.27 16.097 59.871 16.51 59.577 17.028C59.283 17.546 59.136 18.12 59.136 18.75C59.136 19.387 59.2865 19.9645 59.5875 20.4825C59.8955 20.9935 60.298 21.403 60.795 21.711C61.299 22.012 61.8485 22.1625 62.4435 22.1625ZM76.6292 21.018L78.5822 22.0785C78.1062 22.7435 77.5007 23.2755 76.7657 23.6745C76.0377 24.0735 75.2467 24.273 74.3927 24.273C73.4267 24.273 72.5447 24.0245 71.7467 23.5275C70.9557 23.0305 70.3222 22.3655 69.8462 21.5325C69.3772 20.6925 69.1427 19.765 69.1427 18.75C69.1427 17.98 69.2792 17.2625 69.5522 16.5975C69.8252 15.9255 70.1997 15.3375 70.6757 14.8335C71.1587 14.3225 71.7187 13.9235 72.3557 13.6365C72.9927 13.3495 73.6717 13.206 74.3927 13.206C75.2467 13.206 76.0377 13.4055 76.7657 13.8045C77.5007 14.2035 78.1062 14.739 78.5822 15.411L76.6292 16.4715C76.3352 16.1215 75.9922 15.8555 75.6002 15.6735C75.2082 15.4845 74.8057 15.39 74.3927 15.39C73.8187 15.39 73.2972 15.5475 72.8282 15.8625C72.3662 16.1705 71.9987 16.58 71.7257 17.091C71.4597 17.595 71.3267 18.148 71.3267 18.75C71.3267 19.345 71.4632 19.898 71.7362 20.409C72.0092 20.913 72.3767 21.319 72.8387 21.627C73.3077 21.935 73.8257 22.089 74.3927 22.089C74.8267 22.089 75.2397 21.991 75.6317 21.795C76.0237 21.599 76.3562 21.34 76.6292 21.018ZM84.8312 24.273C83.8652 24.273 82.9832 24.0245 82.1852 23.5275C81.3942 23.0305 80.7607 22.3655 80.2847 21.5325C79.8157 20.6925 79.5812 19.765 79.5812 18.75C79.5812 17.98 79.7177 17.2625 79.9907 16.5975C80.2637 15.9255 80.6382 15.3375 81.1142 14.8335C81.5972 14.3225 82.1572 13.9235 82.7942 13.6365C83.4312 13.3495 84.1102 13.206 84.8312 13.206C85.6362 13.206 86.3747 13.374 87.0467 13.71C87.7187 14.039 88.2927 14.4975 88.7687 15.0855C89.2447 15.6665 89.5947 16.3385 89.8187 17.1015C90.0427 17.8575 90.1092 18.6625 90.0182 19.5165H81.9227C82.0137 19.9995 82.1887 20.437 82.4477 20.829C82.7137 21.214 83.0497 21.5185 83.4557 21.7425C83.8687 21.9665 84.3272 22.082 84.8312 22.089C85.3632 22.089 85.8462 21.956 86.2802 21.69C86.7212 21.424 87.0817 21.0565 87.3617 20.5875L89.5772 21.102C89.1572 22.033 88.5237 22.796 87.6767 23.391C86.8297 23.979 85.8812 24.273 84.8312 24.273ZM81.8492 17.847H87.8132C87.7432 17.343 87.5647 16.888 87.2777 16.482C86.9977 16.069 86.6442 15.7435 86.2172 15.5055C85.7972 15.2605 85.3352 15.138 84.8312 15.138C84.3342 15.138 83.8722 15.257 83.4452 15.495C83.0252 15.733 82.6752 16.0585 82.3952 16.4715C82.1222 16.8775 81.9402 17.336 81.8492 17.847ZM91.5216 24V22.0575C92.0186 21.6445 92.5891 21.165 93.2331 20.619C93.8771 20.066 94.5316 19.4815 95.1966 18.8655C95.8616 18.2425 96.4741 17.623 97.0341 17.007C97.5941 16.384 98.0456 15.796 98.3886 15.243C98.7386 14.683 98.9136 14.1965 98.9136 13.7835C98.9136 13.3145 98.7981 12.8875 98.5671 12.5025C98.3431 12.1105 98.0386 11.799 97.6536 11.568C97.2686 11.33 96.8416 11.211 96.3726 11.211C95.9036 11.211 95.4731 11.33 95.0811 11.568C94.6961 11.799 94.3846 12.1105 94.1466 12.5025C93.9156 12.8875 93.8001 13.3145 93.8001 13.7835H91.6161C91.6161 12.8945 91.8331 12.093 92.2671 11.379C92.7081 10.658 93.2856 10.0875 93.9996 9.6675C94.7206 9.2405 95.5116 9.027 96.3726 9.027C97.2406 9.027 98.0316 9.2405 98.7456 9.6675C99.4596 10.0945 100.03 10.6685 100.457 11.3895C100.884 12.1035 101.098 12.9015 101.098 13.7835C101.098 14.2735 100.996 14.7775 100.793 15.2955C100.59 15.8135 100.307 16.342 99.9426 16.881C99.5856 17.42 99.1691 17.966 98.6931 18.519C98.2171 19.072 97.7061 19.625 97.1601 20.178C96.6141 20.731 96.0576 21.277 95.4906 21.816H101.224V24H91.5216ZM103.734 24V9.3H112.396V11.484H105.918V15.033H111.388V17.217H105.918V24H103.734ZM121.172 13.5H123.356V24H121.162L121.078 22.4775C120.77 23.0165 120.353 23.4505 119.828 23.7795C119.303 24.1085 118.684 24.273 117.97 24.273C117.2 24.273 116.475 24.1295 115.796 23.8425C115.117 23.5485 114.519 23.1425 114.001 22.6245C113.49 22.1065 113.091 21.5115 112.804 20.8395C112.517 20.1605 112.373 19.4325 112.373 18.6555C112.373 17.9065 112.513 17.203 112.793 16.545C113.073 15.88 113.462 15.299 113.959 14.802C114.456 14.305 115.03 13.9165 115.681 13.6365C116.339 13.3495 117.042 13.206 117.791 13.206C118.554 13.206 119.226 13.381 119.807 13.731C120.395 14.074 120.882 14.515 121.267 15.054L121.172 13.5ZM117.917 22.1625C118.533 22.1625 119.072 22.012 119.534 21.711C119.996 21.403 120.353 20.99 120.605 20.472C120.864 19.954 120.994 19.38 120.994 18.75C120.994 18.113 120.864 17.5355 120.605 17.0175C120.346 16.4995 119.986 16.09 119.524 15.789C119.069 15.481 118.533 15.327 117.917 15.327C117.308 15.327 116.752 15.481 116.248 15.789C115.744 16.097 115.345 16.51 115.051 17.028C114.757 17.546 114.61 18.12 114.61 18.75C114.61 19.387 114.76 19.9645 115.061 20.4825C115.369 20.9935 115.772 21.403 116.269 21.711C116.773 22.012 117.322 22.1625 117.917 22.1625ZM132.103 21.018L134.056 22.0785C133.58 22.7435 132.974 23.2755 132.239 23.6745C131.511 24.0735 130.72 24.273 129.866 24.273C128.9 24.273 128.018 24.0245 127.22 23.5275C126.429 23.0305 125.796 22.3655 125.32 21.5325C124.851 20.6925 124.616 19.765 124.616 18.75C124.616 17.98 124.753 17.2625 125.026 16.5975C125.299 15.9255 125.673 15.3375 126.149 14.8335C126.632 14.3225 127.192 13.9235 127.829 13.6365C128.466 13.3495 129.145 13.206 129.866 13.206C130.72 13.206 131.511 13.4055 132.239 13.8045C132.974 14.2035 133.58 14.739 134.056 15.411L132.103 16.4715C131.809 16.1215 131.466 15.8555 131.074 15.6735C130.682 15.4845 130.279 15.39 129.866 15.39C129.292 15.39 128.771 15.5475 128.302 15.8625C127.84 16.1705 127.472 16.58 127.199 17.091C126.933 17.595 126.8 18.148 126.8 18.75C126.8 19.345 126.937 19.898 127.21 20.409C127.483 20.913 127.85 21.319 128.312 21.627C128.781 21.935 129.299 22.089 129.866 22.089C130.3 22.089 130.713 21.991 131.105 21.795C131.497 21.599 131.83 21.34 132.103 21.018ZM140.305 24.273C139.339 24.273 138.457 24.0245 137.659 23.5275C136.868 23.0305 136.234 22.3655 135.758 21.5325C135.289 20.6925 135.055 19.765 135.055 18.75C135.055 17.98 135.191 17.2625 135.464 16.5975C135.737 15.9255 136.112 15.3375 136.588 14.8335C137.071 14.3225 137.631 13.9235 138.268 13.6365C138.905 13.3495 139.584 13.206 140.305 13.206C141.11 13.206 141.848 13.374 142.52 13.71C143.192 14.039 143.766 14.4975 144.242 15.0855C144.718 15.6665 145.068 16.3385 145.292 17.1015C145.516 17.8575 145.583 18.6625 145.492 19.5165H137.396C137.487 19.9995 137.662 20.437 137.921 20.829C138.187 21.214 138.523 21.5185 138.929 21.7425C139.342 21.9665 139.801 22.082 140.305 22.089C140.837 22.089 141.32 21.956 141.754 21.69C142.195 21.424 142.555 21.0565 142.835 20.5875L145.051 21.102C144.631 22.033 143.997 22.796 143.15 23.391C142.303 23.979 141.355 24.273 140.305 24.273ZM137.323 17.847H143.287C143.217 17.343 143.038 16.888 142.751 16.482C142.471 16.069 142.118 15.7435 141.691 15.5055C141.271 15.2605 140.809 15.138 140.305 15.138C139.808 15.138 139.346 15.257 138.919 15.495C138.499 15.733 138.149 16.0585 137.869 16.4715C137.596 16.8775 137.414 17.336 137.323 17.847ZM157.7 24.273C156.895 24.273 156.121 24.147 155.379 23.895C154.637 23.643 153.99 23.2825 153.437 22.8135C152.884 22.3375 152.488 21.774 152.25 21.123L154.298 20.3565C154.417 20.6925 154.644 20.9935 154.98 21.2595C155.323 21.5185 155.729 21.7215 156.198 21.8685C156.674 22.0155 157.175 22.089 157.7 22.089C158.26 22.089 158.785 21.998 159.275 21.816C159.772 21.634 160.171 21.382 160.472 21.06C160.78 20.738 160.934 20.36 160.934 19.926C160.934 19.478 160.773 19.1105 160.451 18.8235C160.136 18.5365 159.73 18.309 159.233 18.141C158.743 17.973 158.232 17.847 157.7 17.763C156.671 17.595 155.747 17.35 154.928 17.028C154.116 16.706 153.472 16.2545 152.996 15.6735C152.527 15.0925 152.292 14.3365 152.292 13.4055C152.292 12.5305 152.541 11.7675 153.038 11.1165C153.542 10.4655 154.203 9.9615 155.022 9.6045C155.848 9.2405 156.741 9.0585 157.7 9.0585C158.491 9.0585 159.254 9.1845 159.989 9.4365C160.731 9.6815 161.382 10.042 161.942 10.518C162.509 10.987 162.915 11.5575 163.16 12.2295L161.091 12.975C160.972 12.632 160.745 12.3345 160.409 12.0825C160.073 11.8235 159.667 11.6205 159.191 11.4735C158.722 11.3265 158.225 11.253 157.7 11.253C157.14 11.246 156.615 11.337 156.125 11.526C155.642 11.708 155.246 11.96 154.938 12.282C154.63 12.604 154.476 12.9785 154.476 13.4055C154.476 13.9305 154.62 14.3295 154.907 14.6025C155.194 14.8755 155.579 15.0785 156.062 15.2115C156.552 15.3375 157.098 15.453 157.7 15.558C158.666 15.712 159.558 15.9675 160.377 16.3245C161.203 16.6815 161.865 17.1575 162.362 17.7525C162.866 18.3405 163.118 19.065 163.118 19.926C163.118 20.794 162.866 21.557 162.362 22.215C161.865 22.866 161.203 23.3735 160.377 23.7375C159.558 24.0945 158.666 24.273 157.7 24.273ZM172.052 21.018L174.005 22.0785C173.529 22.7435 172.924 23.2755 172.189 23.6745C171.461 24.0735 170.67 24.273 169.816 24.273C168.85 24.273 167.968 24.0245 167.17 23.5275C166.379 23.0305 165.745 22.3655 165.269 21.5325C164.8 20.6925 164.566 19.765 164.566 18.75C164.566 17.98 164.702 17.2625 164.975 16.5975C165.248 15.9255 165.623 15.3375 166.099 14.8335C166.582 14.3225 167.142 13.9235 167.779 13.6365C168.416 13.3495 169.095 13.206 169.816 13.206C170.67 13.206 171.461 13.4055 172.189 13.8045C172.924 14.2035 173.529 14.739 174.005 15.411L172.052 16.4715C171.758 16.1215 171.415 15.8555 171.023 15.6735C170.631 15.4845 170.229 15.39 169.816 15.39C169.242 15.39 168.72 15.5475 168.251 15.8625C167.789 16.1705 167.422 16.58 167.149 17.091C166.883 17.595 166.75 18.148 166.75 18.75C166.75 19.345 166.886 19.898 167.159 20.409C167.432 20.913 167.8 21.319 168.262 21.627C168.731 21.935 169.249 22.089 169.816 22.089C170.25 22.089 170.663 21.991 171.055 21.795C171.447 21.599 171.779 21.34 172.052 21.018ZM183.803 13.5H185.987V24H183.793L183.709 22.4775C183.401 23.0165 182.984 23.4505 182.459 23.7795C181.934 24.1085 181.315 24.273 180.601 24.273C179.831 24.273 179.106 24.1295 178.427 23.8425C177.748 23.5485 177.15 23.1425 176.632 22.6245C176.121 22.1065 175.722 21.5115 175.435 20.8395C175.148 20.1605 175.004 19.4325 175.004 18.6555C175.004 17.9065 175.144 17.203 175.424 16.545C175.704 15.88 176.093 15.299 176.59 14.802C177.087 14.305 177.661 13.9165 178.312 13.6365C178.97 13.3495 179.673 13.206 180.422 13.206C181.185 13.206 181.857 13.381 182.438 13.731C183.026 14.074 183.513 14.515 183.898 15.054L183.803 13.5ZM180.548 22.1625C181.164 22.1625 181.703 22.012 182.165 21.711C182.627 21.403 182.984 20.99 183.236 20.472C183.495 19.954 183.625 19.38 183.625 18.75C183.625 18.113 183.495 17.5355 183.236 17.0175C182.977 16.4995 182.617 16.09 182.155 15.789C181.7 15.481 181.164 15.327 180.548 15.327C179.939 15.327 179.383 15.481 178.879 15.789C178.375 16.097 177.976 16.51 177.682 17.028C177.388 17.546 177.241 18.12 177.241 18.75C177.241 19.387 177.391 19.9645 177.692 20.4825C178 20.9935 178.403 21.403 178.9 21.711C179.404 22.012 179.953 22.1625 180.548 22.1625ZM190.781 11.1165V13.5H193.742V15.684H190.781V24H188.597V15.684H187.347V13.5H188.597V11.1165C188.597 10.5425 188.737 10.021 189.017 9.552C189.297 9.076 189.671 8.698 190.14 8.418C190.616 8.138 191.145 7.998 191.726 7.998C192.146 7.998 192.555 8.082 192.954 8.25C193.353 8.418 193.71 8.677 194.025 9.027L192.461 10.5705C192.384 10.4445 192.275 10.35 192.135 10.287C192.002 10.217 191.866 10.182 191.726 10.182C191.467 10.182 191.243 10.273 191.054 10.455C190.872 10.637 190.781 10.8575 190.781 11.1165ZM198.369 11.1165V13.5H201.33V15.684H198.369V24H196.185V15.684H194.935V13.5H196.185V11.1165C196.185 10.5425 196.325 10.021 196.605 9.552C196.885 9.076 197.259 8.698 197.728 8.418C198.204 8.138 198.733 7.998 199.314 7.998C199.734 7.998 200.143 8.082 200.542 8.25C200.941 8.418 201.298 8.677 201.613 9.027L200.049 10.5705C199.972 10.4445 199.863 10.35 199.723 10.287C199.59 10.217 199.454 10.182 199.314 10.182C199.055 10.182 198.831 10.273 198.642 10.455C198.46 10.637 198.369 10.8575 198.369 11.1165ZM207.427 24.273C206.461 24.273 205.579 24.0245 204.781 23.5275C203.99 23.0305 203.356 22.3655 202.88 21.5325C202.411 20.6925 202.177 19.765 202.177 18.75C202.177 17.98 202.313 17.2625 202.586 16.5975C202.859 15.9255 203.234 15.3375 203.71 14.8335C204.193 14.3225 204.753 13.9235 205.39 13.6365C206.027 13.3495 206.706 13.206 207.427 13.206C208.393 13.206 209.271 13.4545 210.062 13.9515C210.86 14.4485 211.494 15.117 211.963 15.957C212.439 16.797 212.677 17.728 212.677 18.75C212.677 19.513 212.54 20.227 212.267 20.892C211.994 21.557 211.616 22.145 211.133 22.656C210.657 23.16 210.101 23.5555 209.464 23.8425C208.834 24.1295 208.155 24.273 207.427 24.273ZM207.427 22.089C208.008 22.089 208.529 21.935 208.991 21.627C209.453 21.319 209.817 20.913 210.083 20.409C210.356 19.898 210.493 19.345 210.493 18.75C210.493 18.141 210.353 17.581 210.073 17.07C209.8 16.559 209.432 16.153 208.97 15.852C208.508 15.544 207.994 15.39 207.427 15.39C206.853 15.39 206.331 15.544 205.862 15.852C205.4 16.16 205.033 16.5695 204.76 17.0805C204.494 17.5915 204.361 18.148 204.361 18.75C204.361 19.373 204.501 19.9365 204.781 20.4405C205.061 20.9445 205.432 21.347 205.894 21.648C206.363 21.942 206.874 22.089 207.427 22.089ZM214.23 24V8.25H216.414V24H214.23ZM226.962 8.25H229.146V24H226.962V22.4565C226.619 23.0025 226.171 23.4435 225.618 23.7795C225.065 24.1085 224.417 24.273 223.675 24.273C222.912 24.273 222.198 24.1295 221.533 23.8425C220.868 23.5555 220.28 23.16 219.769 22.656C219.265 22.145 218.87 21.557 218.583 20.892C218.296 20.227 218.152 19.513 218.152 18.75C218.152 17.987 218.296 17.273 218.583 16.608C218.87 15.936 219.265 15.348 219.769 14.844C220.28 14.333 220.868 13.934 221.533 13.647C222.198 13.36 222.912 13.2165 223.675 13.2165C224.417 13.2165 225.065 13.3845 225.618 13.7205C226.171 14.0495 226.619 14.4835 226.962 15.0225V8.25ZM223.696 22.1625C224.312 22.1625 224.851 22.012 225.313 21.711C225.775 21.403 226.132 20.99 226.384 20.472C226.643 19.954 226.773 19.38 226.773 18.75C226.773 18.113 226.643 17.5355 226.384 17.0175C226.125 16.4995 225.765 16.09 225.303 15.789C224.848 15.481 224.312 15.327 223.696 15.327C223.087 15.327 222.531 15.481 222.027 15.789C221.53 16.097 221.131 16.51 220.83 17.028C220.536 17.546 220.389 18.12 220.389 18.75C220.389 19.387 220.539 19.9645 220.84 20.4825C221.148 20.9935 221.551 21.403 222.048 21.711C222.552 22.012 223.101 22.1625 223.696 22.1625ZM231.661 13.5H233.845V24H231.661V13.5ZM232.774 11.9775C232.438 11.9775 232.158 11.869 231.934 11.652C231.71 11.435 231.598 11.162 231.598 10.833C231.598 10.511 231.71 10.2415 231.934 10.0245C232.158 9.8005 232.435 9.6885 232.764 9.6885C233.086 9.6885 233.359 9.8005 233.583 10.0245C233.807 10.2415 233.919 10.511 233.919 10.833C233.919 11.162 233.807 11.435 233.583 11.652C233.366 11.869 233.096 11.9775 232.774 11.9775ZM245.726 17.4165V24H243.542V17.952C243.542 17.483 243.426 17.056 243.195 16.671C242.971 16.286 242.667 15.9815 242.282 15.7575C241.904 15.5265 241.477 15.411 241.001 15.411C240.539 15.411 240.115 15.5265 239.73 15.7575C239.345 15.9815 239.037 16.286 238.806 16.671C238.575 17.056 238.46 17.483 238.46 17.952V24H236.276V13.5H238.46V14.613C238.824 14.179 239.272 13.836 239.804 13.584C240.336 13.332 240.91 13.206 241.526 13.206C242.303 13.206 243.01 13.395 243.647 13.773C244.284 14.151 244.788 14.6585 245.159 15.2955C245.537 15.9325 245.726 16.6395 245.726 17.4165ZM255.607 13.5H257.791V24.273C257.791 24.994 257.637 25.659 257.329 26.268C257.028 26.877 256.618 27.402 256.1 27.843C255.582 28.291 254.987 28.6375 254.315 28.8825C253.65 29.1275 252.954 29.25 252.226 29.25C251.491 29.25 250.784 29.0925 250.105 28.7775C249.426 28.4695 248.827 28.0495 248.309 27.5175C247.798 26.9855 247.417 26.3835 247.165 25.7115L249.17 24.8085C249.31 25.2425 249.534 25.6275 249.842 25.9635C250.157 26.2995 250.521 26.5655 250.934 26.7615C251.354 26.9575 251.785 27.0555 252.226 27.0555C252.66 27.0555 253.076 26.9855 253.475 26.8455C253.881 26.7125 254.242 26.5235 254.557 26.2785C254.879 26.0335 255.134 25.7395 255.323 25.3965C255.512 25.0535 255.607 24.679 255.607 24.273V22.4985C255.264 23.0305 254.823 23.461 254.284 23.79C253.745 24.112 253.118 24.273 252.404 24.273C251.662 24.273 250.962 24.1295 250.304 23.8425C249.646 23.5555 249.069 23.16 248.572 22.656C248.075 22.145 247.686 21.557 247.406 20.892C247.126 20.227 246.986 19.513 246.986 18.75C246.986 17.987 247.126 17.273 247.406 16.608C247.686 15.936 248.075 15.348 248.572 14.844C249.069 14.333 249.646 13.934 250.304 13.647C250.962 13.36 251.662 13.2165 252.404 13.2165C253.118 13.2165 253.745 13.381 254.284 13.71C254.823 14.032 255.264 14.4625 255.607 15.0015V13.5ZM252.425 22.1625C253.034 22.1625 253.566 22.0085 254.021 21.7005C254.476 21.3855 254.83 20.969 255.082 20.451C255.334 19.933 255.46 19.366 255.46 18.75C255.46 18.12 255.33 17.5495 255.071 17.0385C254.819 16.5205 254.466 16.1075 254.011 15.7995C253.556 15.4845 253.027 15.327 252.425 15.327C251.837 15.327 251.298 15.481 250.808 15.789C250.325 16.097 249.94 16.51 249.653 17.028C249.366 17.546 249.223 18.12 249.223 18.75C249.223 19.38 249.366 19.954 249.653 20.472C249.947 20.99 250.336 21.403 250.819 21.711C251.309 22.012 251.844 22.1625 252.425 22.1625Z" fill="white"/>
<path d="M18.0558 0V6.24533H7.1178V12.4562H17.2227V18.7015H7.1178V31.2316H0V0H18.0558Z" fill="white"/>
<path d="M16.9443 31.2316V24.9862H27.8823V18.7754H17.7774V12.5301H27.8823V0H35.0001V31.2316H16.9443Z" fill="white"/>
</svg>
