<svg width="220" height="37" viewBox="0 0 220 37" fill="none" xmlns="http://www.w3.org/2000/svg">
<g clip-path="url(#clip0_122_1021)">
<path d="M55.9238 28.0802V11.707H65.7982V14.1396H58.4134V18.0926H64.6492V20.5252H58.4134V28.0802H55.9238ZM66.9932 28.0802V25.9166C67.5598 25.4566 68.2101 24.9226 68.9442 24.3144C69.6783 23.6985 70.4243 23.0474 71.1824 22.3613C71.9404 21.6674 72.6386 20.9774 73.2769 20.2913C73.9153 19.5974 74.4299 18.9424 74.8209 18.3265C75.2199 17.7028 75.4194 17.1609 75.4194 16.7009C75.4194 16.1785 75.2877 15.7029 75.0244 15.2741C74.7691 14.8375 74.422 14.4905 73.9831 14.2332C73.5442 13.9681 73.0575 13.8356 72.5229 13.8356C71.9883 13.8356 71.4976 13.9681 71.0507 14.2332C70.6118 14.4905 70.2568 14.8375 69.9855 15.2741C69.7222 15.7029 69.5905 16.1785 69.5905 16.7009H67.101C67.101 15.7107 67.3483 14.818 67.843 14.0227C68.3457 13.2196 69.004 12.5842 69.8179 12.1164C70.6398 11.6408 71.5414 11.403 72.5229 11.403C73.5123 11.403 74.414 11.6408 75.2279 12.1164C76.0417 12.592 76.6921 13.2313 77.1788 14.0344C77.6655 14.8297 77.9089 15.7185 77.9089 16.7009C77.9089 17.2467 77.7932 17.808 77.5618 18.385C77.3304 18.9619 77.0072 19.5506 76.5923 20.1509C76.1854 20.7513 75.7106 21.3594 75.168 21.9754C74.6254 22.5913 74.0429 23.2073 73.4206 23.8232C72.7982 24.4392 72.1638 25.0473 71.5175 25.6477H78.0525V28.0802H66.9932ZM80.9136 28.0802V11.707H90.7879V14.1396H83.4031V18.0926H89.6389V20.5252H83.4031V28.0802H80.9136ZM104.185 28.3843C103.267 28.3843 102.386 28.244 101.54 27.9633C100.694 27.6826 99.9559 27.2811 99.3255 26.7587C98.6951 26.2285 98.2443 25.6009 97.973 24.8758L100.307 24.022C100.443 24.3963 100.702 24.7315 101.085 25.0278C101.476 25.3163 101.939 25.5424 102.473 25.7061C103.016 25.8699 103.586 25.9517 104.185 25.9517C104.823 25.9517 105.422 25.8504 105.98 25.6477C106.547 25.4449 107.002 25.1643 107.345 24.8056C107.696 24.447 107.871 24.0259 107.871 23.5425C107.871 23.0435 107.688 22.6342 107.321 22.3145C106.962 21.9949 106.499 21.7415 105.932 21.5544C105.374 21.3672 104.791 21.2269 104.185 21.1333C103.012 20.9462 101.959 20.6733 101.025 20.3147C100.099 19.956 99.3654 19.4531 98.8228 18.806C98.2882 18.1589 98.0209 17.3168 98.0209 16.2799C98.0209 15.3053 98.3041 14.4554 98.8707 13.7303C99.4452 13.0052 100.199 12.4438 101.133 12.0462C102.074 11.6408 103.092 11.438 104.185 11.438C105.087 11.438 105.956 11.5784 106.794 11.8591C107.64 12.132 108.382 12.5335 109.02 13.0637C109.667 13.5861 110.129 14.2215 110.409 14.97L108.051 15.8004C107.915 15.4183 107.656 15.0869 107.273 14.8063C106.89 14.5178 106.427 14.2917 105.884 14.1279C105.35 13.9642 104.783 13.8824 104.185 13.8824C103.547 13.8746 102.948 13.9759 102.39 14.1864C101.839 14.3891 101.388 14.6698 101.037 15.0285C100.686 15.3871 100.51 15.8043 100.51 16.2799C100.51 16.8646 100.674 17.309 101.001 17.6131C101.328 17.9172 101.767 18.1433 102.318 18.2914C102.876 18.4318 103.499 18.5604 104.185 18.6774C105.286 18.8489 106.303 19.1335 107.237 19.5311C108.179 19.9287 108.933 20.4589 109.499 21.1216C110.074 21.7766 110.361 22.5835 110.361 23.5425C110.361 24.5093 110.074 25.3592 109.499 26.0921C108.933 26.8172 108.179 27.3824 107.237 27.7879C106.303 28.1855 105.286 28.3843 104.185 28.3843ZM120.545 24.7588L122.772 25.94C122.229 26.6807 121.538 27.2733 120.7 27.7177C119.871 28.1621 118.969 28.3843 117.995 28.3843C116.894 28.3843 115.889 28.1075 114.979 27.554C114.078 27.0004 113.356 26.2597 112.813 25.3319C112.279 24.3963 112.011 23.3632 112.011 22.2327C112.011 21.375 112.167 20.5759 112.478 19.8352C112.789 19.0867 113.216 18.4318 113.759 17.8704C114.309 17.3012 114.947 16.8568 115.673 16.5371C116.4 16.2175 117.174 16.0576 117.995 16.0576C118.969 16.0576 119.871 16.2799 120.7 16.7243C121.538 17.1687 122.229 17.7651 122.772 18.5136L120.545 19.6948C120.21 19.305 119.819 19.0087 119.372 18.806C118.926 18.5955 118.466 18.4902 117.995 18.4902C117.341 18.4902 116.747 18.6657 116.213 19.0165C115.686 19.3596 115.266 19.8157 114.955 20.3848C114.652 20.9462 114.5 21.5622 114.5 22.2327C114.5 22.8954 114.657 23.5113 114.968 24.0805C115.279 24.6419 115.697 25.0941 116.224 25.4371C116.759 25.7802 117.349 25.9517 117.995 25.9517C118.49 25.9517 118.961 25.8426 119.408 25.6243C119.855 25.406 120.234 25.1175 120.545 24.7588ZM133.94 16.3851H136.43V28.0802H133.928L133.832 26.3845C133.481 26.9848 133.007 27.4682 132.408 27.8347C131.81 28.2011 131.103 28.3843 130.289 28.3843C129.411 28.3843 128.586 28.2245 127.812 27.9048C127.038 27.5774 126.355 27.1251 125.765 26.5482C125.182 25.9712 124.728 25.3085 124.4 24.56C124.073 23.8037 123.91 22.9929 123.91 22.1274C123.91 21.2932 124.07 20.5096 124.389 19.7767C124.708 19.036 125.151 18.3889 125.717 17.8353C126.284 17.2817 126.938 16.849 127.68 16.5371C128.43 16.2175 129.233 16.0576 130.086 16.0576C130.956 16.0576 131.722 16.2526 132.384 16.6424C133.055 17.0244 133.609 17.5156 134.047 18.116L133.94 16.3851ZM130.23 26.0336C130.932 26.0336 131.546 25.866 132.073 25.5307C132.6 25.1877 133.007 24.7276 133.294 24.1507C133.589 23.5737 133.736 22.9344 133.736 22.2327C133.736 21.5232 133.589 20.8799 133.294 20.303C132.999 19.726 132.587 19.2699 132.061 18.9347C131.542 18.5916 130.932 18.4201 130.23 18.4201C129.536 18.4201 128.901 18.5916 128.326 18.9347C127.752 19.2777 127.297 19.7377 126.962 20.3147C126.627 20.8916 126.459 21.531 126.459 22.2327C126.459 22.9422 126.631 23.5854 126.974 24.1624C127.325 24.7315 127.784 25.1877 128.35 25.5307C128.925 25.866 129.552 26.0336 130.23 26.0336ZM141.893 13.7303V16.3851H145.269V18.8177H141.893V28.0802H139.404V18.8177H137.98V16.3851H139.404V13.7303C139.404 13.091 139.563 12.5101 139.883 11.9877C140.202 11.4575 140.629 11.0365 141.164 10.7246C141.706 10.4128 142.308 10.2568 142.971 10.2568C143.449 10.2568 143.917 10.3504 144.371 10.5375C144.826 10.7246 145.233 11.0131 145.592 11.403L143.808 13.1222C143.721 12.9818 143.597 12.8766 143.438 12.8064C143.286 12.7284 143.13 12.6894 142.971 12.6894C142.675 12.6894 142.42 12.7908 142.205 12.9935C141.997 13.1962 141.893 13.4418 141.893 13.7303ZM150.543 13.7303V16.3851H153.918V18.8177H150.543V28.0802H148.053V18.8177H146.63V16.3851H148.053V13.7303C148.053 13.091 148.213 12.5101 148.532 11.9877C148.851 11.4575 149.279 11.0365 149.813 10.7246C150.356 10.4128 150.958 10.2568 151.62 10.2568C152.099 10.2568 152.566 10.3504 153.021 10.5375C153.476 10.7246 153.883 11.0131 154.242 11.403L152.458 13.1222C152.37 12.9818 152.247 12.8766 152.087 12.8064C151.936 12.7284 151.78 12.6894 151.62 12.6894C151.325 12.6894 151.069 12.7908 150.854 12.9935C150.647 13.1962 150.543 13.4418 150.543 13.7303ZM160.869 28.3843C159.768 28.3843 158.763 28.1075 157.853 27.554C156.951 27.0004 156.229 26.2597 155.686 25.3319C155.151 24.3963 154.885 23.3632 154.885 22.2327C154.885 21.375 155.04 20.5759 155.351 19.8352C155.662 19.0867 156.09 18.4318 156.632 17.8704C157.183 17.3012 157.821 16.8568 158.547 16.5371C159.273 16.2175 160.047 16.0576 160.869 16.0576C161.97 16.0576 162.971 16.3344 163.873 16.888C164.782 17.4416 165.505 18.1862 166.04 19.1218C166.582 20.0574 166.854 21.0944 166.854 22.2327C166.854 23.0825 166.697 23.8778 166.386 24.6185C166.075 25.3592 165.644 26.0141 165.094 26.5833C164.551 27.1446 163.917 27.5852 163.191 27.9048C162.473 28.2245 161.699 28.3843 160.869 28.3843ZM160.869 25.9517C161.531 25.9517 162.125 25.7802 162.652 25.4371C163.179 25.0941 163.594 24.6419 163.897 24.0805C164.208 23.5113 164.364 22.8954 164.364 22.2327C164.364 21.5544 164.205 20.9306 163.885 20.3615C163.574 19.7923 163.155 19.3401 162.628 19.0048C162.101 18.6618 161.516 18.4902 160.869 18.4902C160.215 18.4902 159.62 18.6618 159.085 19.0048C158.559 19.3479 158.14 19.804 157.829 20.3732C157.526 20.9423 157.374 21.5622 157.374 22.2327C157.374 22.9266 157.534 23.5542 157.853 24.1156C158.172 24.677 158.595 25.1253 159.122 25.4605C159.656 25.788 160.239 25.9517 160.869 25.9517ZM168.623 28.0802V10.5375H171.112V28.0802H168.623ZM183.137 10.5375H185.627V28.0802H183.137V26.3611C182.746 26.9692 182.235 27.4604 181.605 27.8347C180.975 28.2011 180.236 28.3843 179.39 28.3843C178.52 28.3843 177.707 28.2245 176.949 27.9048C176.191 27.5852 175.52 27.1446 174.938 26.5833C174.363 26.0141 173.913 25.3592 173.586 24.6185C173.259 23.8778 173.095 23.0825 173.095 22.2327C173.095 21.3828 173.259 20.5876 173.586 19.8469C173.913 19.0984 174.363 18.4435 174.938 17.8821C175.52 17.3129 176.191 16.8685 176.949 16.5488C177.707 16.2292 178.52 16.0693 179.39 16.0693C180.236 16.0693 180.975 16.2565 181.605 16.6307C182.235 16.9972 182.746 17.4806 183.137 18.0809V10.5375ZM179.414 26.0336C180.116 26.0336 180.731 25.866 181.257 25.5307C181.784 25.1877 182.191 24.7276 182.478 24.1507C182.773 23.5737 182.922 22.9344 182.922 22.2327C182.922 21.5232 182.773 20.8799 182.478 20.303C182.183 19.726 181.773 19.2699 181.246 18.9347C180.727 18.5916 180.116 18.4201 179.414 18.4201C178.72 18.4201 178.086 18.5916 177.512 18.9347C176.945 19.2777 176.49 19.7377 176.147 20.3147C175.812 20.8916 175.645 21.531 175.645 22.2327C175.645 22.9422 175.816 23.5854 176.159 24.1624C176.51 24.7315 176.969 25.1877 177.536 25.5307C178.11 25.866 178.736 26.0336 179.414 26.0336ZM188.493 16.3851H190.983V28.0802H188.493V16.3851ZM189.762 14.6893C189.379 14.6893 189.06 14.5685 188.805 14.3268C188.549 14.0851 188.422 13.781 188.422 13.4145C188.422 13.0559 188.549 12.7557 188.805 12.514C189.06 12.2645 189.376 12.1398 189.751 12.1398C190.118 12.1398 190.429 12.2645 190.684 12.514C190.94 12.7557 191.067 13.0559 191.067 13.4145C191.067 13.781 190.94 14.0851 190.684 14.3268C190.437 14.5685 190.129 14.6893 189.762 14.6893ZM204.525 20.7474V28.0802H202.035V21.3438C202.035 20.8215 201.904 20.3459 201.641 19.917C201.386 19.4882 201.038 19.1491 200.599 18.8996C200.168 18.6423 199.682 18.5136 199.139 18.5136C198.612 18.5136 198.13 18.6423 197.691 18.8996C197.252 19.1491 196.901 19.4882 196.638 19.917C196.375 20.3459 196.242 20.8215 196.242 21.3438V28.0802H193.753V16.3851H196.242V17.6248C196.657 17.1414 197.168 16.7594 197.774 16.4787C198.381 16.198 199.035 16.0576 199.737 16.0576C200.623 16.0576 201.429 16.2682 202.155 16.6892C202.881 17.1102 203.456 17.6755 203.879 18.385C204.309 19.0945 204.525 19.882 204.525 20.7474ZM215.789 16.3851H218.279V28.3843C218.279 29.1874 218.103 29.9281 217.752 30.6064C217.409 31.2847 216.942 31.8695 216.351 32.3607C215.761 32.8597 215.083 33.2456 214.317 33.5185C213.559 33.7914 212.765 33.9278 211.935 33.9278C211.098 33.9278 210.292 33.7524 209.518 33.4015C208.744 33.0585 208.061 32.5907 207.47 31.9981C206.888 31.4056 206.454 30.735 206.166 29.9866L208.452 28.9808C208.611 29.4642 208.867 29.893 209.218 30.2672C209.577 30.6415 209.992 30.9378 210.463 31.1561C210.941 31.3744 211.433 31.4835 211.935 31.4835C212.43 31.4835 212.904 31.4056 213.359 31.2496C213.822 31.1015 214.233 30.891 214.592 30.6181C214.96 30.3452 215.25 30.0177 215.466 29.6357C215.681 29.2537 215.789 28.8365 215.789 28.3843V26.4078C215.398 27.0004 214.896 27.4799 214.281 27.8463C213.667 28.205 212.952 28.3843 212.138 28.3843C211.292 28.3843 210.495 28.2245 209.745 27.9048C208.994 27.5852 208.337 27.1446 207.77 26.5833C207.204 26.0141 206.76 25.3592 206.441 24.6185C206.122 23.8778 205.962 23.0825 205.962 22.2327C205.962 21.3828 206.122 20.5876 206.441 19.8469C206.76 19.0984 207.204 18.4435 207.77 17.8821C208.337 17.3129 208.994 16.8685 209.745 16.5488C210.495 16.2292 211.292 16.0693 212.138 16.0693C212.952 16.0693 213.667 16.2526 214.281 16.619C214.896 16.9777 215.398 17.4572 215.789 18.0575V16.3851ZM212.162 26.0336C212.856 26.0336 213.463 25.8621 213.982 25.519C214.5 25.1682 214.904 24.7043 215.191 24.1273C215.478 23.5503 215.622 22.9188 215.622 22.2327C215.622 21.531 215.474 20.8955 215.178 20.3264C214.891 19.7494 214.489 19.2894 213.97 18.9463C213.451 18.5955 212.848 18.4201 212.162 18.4201C211.492 18.4201 210.878 18.5916 210.319 18.9347C209.768 19.2777 209.33 19.7377 209.002 20.3147C208.675 20.8916 208.512 21.531 208.512 22.2327C208.512 22.9344 208.675 23.5737 209.002 24.1507C209.338 24.7276 209.781 25.1877 210.332 25.5307C210.89 25.866 211.5 26.0336 212.162 26.0336Z" fill="#002F69"/>
<path d="M21.4937 1.34851V8.3047H9.02566V15.2224H20.5442V22.1787H9.02566V36.1349H0.912109V1.34851H21.4937Z" fill="#002F69"/>
<path d="M20.2266 36.1349V29.1787H32.6946V22.261H21.1761V15.3048H32.6946V1.34851H40.8082V36.1349H20.2266Z" fill="#002F69"/>
</g>
<defs>
<clipPath id="clip0_122_1021">
<rect width="220" height="35.6423" fill="white" transform="translate(0 0.92041)"/>
</clipPath>
</defs>
</svg>
