<svg width="192" height="32" viewBox="0 0 192 32" fill="none" xmlns="http://www.w3.org/2000/svg">
<path d="M48.26 24.3838V9.68379H56.9225V11.8678H50.444V15.4168H55.9145V17.6008H50.444V24.3838H48.26ZM57.9709 24.3838V22.4413C58.4679 22.0283 59.0384 21.5488 59.6824 21.0028C60.3264 20.4498 60.9809 19.8653 61.6459 19.2493C62.3109 18.6263 62.9234 18.0068 63.4834 17.3908C64.0434 16.7678 64.4949 16.1798 64.8379 15.6268C65.1879 15.0668 65.3629 14.5803 65.3629 14.1673C65.3629 13.6983 65.2474 13.2713 65.0164 12.8863C64.7924 12.4943 64.4879 12.1828 64.1029 11.9518C63.7179 11.7138 63.2909 11.5948 62.8219 11.5948C62.3529 11.5948 61.9224 11.7138 61.5304 11.9518C61.1454 12.1828 60.8339 12.4943 60.5959 12.8863C60.3649 13.2713 60.2494 13.6983 60.2494 14.1673H58.0654C58.0654 13.2783 58.2824 12.4768 58.7164 11.7628C59.1574 11.0418 59.7349 10.4713 60.4489 10.0513C61.1699 9.62429 61.9609 9.41079 62.8219 9.41079C63.6899 9.41079 64.4809 9.62429 65.1949 10.0513C65.9089 10.4783 66.4794 11.0523 66.9064 11.7733C67.3334 12.4873 67.5469 13.2853 67.5469 14.1673C67.5469 14.6573 67.4454 15.1613 67.2424 15.6793C67.0394 16.1973 66.7559 16.7258 66.3919 17.2648C66.0349 17.8038 65.6184 18.3498 65.1424 18.9028C64.6664 19.4558 64.1554 20.0088 63.6094 20.5618C63.0634 21.1148 62.5069 21.6608 61.9399 22.1998H67.6729V24.3838H57.9709ZM70.1829 24.3838V9.68379H78.8454V11.8678H72.3669V15.4168H77.8374V17.6008H72.3669V24.3838H70.1829ZM90.5981 24.6568C89.7931 24.6568 89.0196 24.5308 88.2776 24.2788C87.5356 24.0268 86.8881 23.6663 86.3351 23.1973C85.7821 22.7213 85.3866 22.1578 85.1486 21.5068L87.1961 20.7403C87.3151 21.0763 87.5426 21.3773 87.8786 21.6433C88.2216 21.9023 88.6276 22.1053 89.0966 22.2523C89.5726 22.3993 90.0731 22.4728 90.5981 22.4728C91.1581 22.4728 91.6831 22.3818 92.1731 22.1998C92.6701 22.0178 93.0691 21.7658 93.3701 21.4438C93.6781 21.1218 93.8321 20.7438 93.8321 20.3098C93.8321 19.8618 93.6711 19.4943 93.3491 19.2073C93.0341 18.9203 92.6281 18.6928 92.1311 18.5248C91.6411 18.3568 91.1301 18.2308 90.5981 18.1468C89.5691 17.9788 88.6451 17.7338 87.8261 17.4118C87.0141 17.0898 86.3701 16.6383 85.8941 16.0573C85.4251 15.4763 85.1906 14.7203 85.1906 13.7893C85.1906 12.9143 85.4391 12.1513 85.9361 11.5003C86.4401 10.8493 87.1016 10.3453 87.9206 9.98829C88.7466 9.62429 89.6391 9.44229 90.5981 9.44229C91.3891 9.44229 92.1521 9.56829 92.8871 9.82029C93.6291 10.0653 94.2801 10.4258 94.8401 10.9018C95.4071 11.3708 95.8131 11.9413 96.0581 12.6133L93.9896 13.3588C93.8706 13.0158 93.6431 12.7183 93.3071 12.4663C92.9711 12.2073 92.5651 12.0043 92.0891 11.8573C91.6201 11.7103 91.1231 11.6368 90.5981 11.6368C90.0381 11.6298 89.5131 11.7208 89.0231 11.9098C88.5401 12.0918 88.1446 12.3438 87.8366 12.6658C87.5286 12.9878 87.3746 13.3623 87.3746 13.7893C87.3746 14.3143 87.5181 14.7133 87.8051 14.9863C88.0921 15.2593 88.4771 15.4623 88.9601 15.5953C89.4501 15.7213 89.9961 15.8368 90.5981 15.9418C91.5641 16.0958 92.4566 16.3513 93.2756 16.7083C94.1016 17.0653 94.7631 17.5413 95.2601 18.1363C95.7641 18.7243 96.0161 19.4488 96.0161 20.3098C96.0161 21.1778 95.7641 21.9408 95.2601 22.5988C94.7631 23.2498 94.1016 23.7573 93.2756 24.1213C92.4566 24.4783 91.5641 24.6568 90.5981 24.6568ZM104.95 21.4018L106.903 22.4623C106.427 23.1273 105.822 23.6593 105.087 24.0583C104.359 24.4573 103.568 24.6568 102.714 24.6568C101.748 24.6568 100.866 24.4083 100.068 23.9113C99.277 23.4143 98.6435 22.7493 98.1675 21.9163C97.6985 21.0763 97.464 20.1488 97.464 19.1338C97.464 18.3638 97.6005 17.6463 97.8735 16.9813C98.1465 16.3093 98.521 15.7213 98.997 15.2173C99.48 14.7063 100.04 14.3073 100.677 14.0203C101.314 13.7333 101.993 13.5898 102.714 13.5898C103.568 13.5898 104.359 13.7893 105.087 14.1883C105.822 14.5873 106.427 15.1228 106.903 15.7948L104.95 16.8553C104.656 16.5053 104.313 16.2393 103.921 16.0573C103.529 15.8683 103.127 15.7738 102.714 15.7738C102.14 15.7738 101.618 15.9313 101.149 16.2463C100.687 16.5543 100.32 16.9638 100.047 17.4748C99.781 17.9788 99.648 18.5318 99.648 19.1338C99.648 19.7288 99.7845 20.2818 100.057 20.7928C100.33 21.2968 100.698 21.7028 101.16 22.0108C101.629 22.3188 102.147 22.4728 102.714 22.4728C103.148 22.4728 103.561 22.3748 103.953 22.1788C104.345 21.9828 104.677 21.7238 104.95 21.4018ZM116.701 13.8838H118.885V24.3838H116.691L116.607 22.8613C116.299 23.4003 115.882 23.8343 115.357 24.1633C114.832 24.4923 114.213 24.6568 113.499 24.6568C112.729 24.6568 112.004 24.5133 111.325 24.2263C110.646 23.9323 110.048 23.5263 109.53 23.0083C109.019 22.4903 108.62 21.8953 108.333 21.2233C108.046 20.5443 107.902 19.8163 107.902 19.0393C107.902 18.2903 108.042 17.5868 108.322 16.9288C108.602 16.2638 108.991 15.6828 109.488 15.1858C109.985 14.6888 110.559 14.3003 111.21 14.0203C111.868 13.7333 112.571 13.5898 113.32 13.5898C114.083 13.5898 114.755 13.7648 115.336 14.1148C115.924 14.4578 116.411 14.8988 116.796 15.4378L116.701 13.8838ZM113.446 22.5463C114.062 22.5463 114.601 22.3958 115.063 22.0948C115.525 21.7868 115.882 21.3738 116.134 20.8558C116.393 20.3378 116.523 19.7638 116.523 19.1338C116.523 18.4968 116.393 17.9193 116.134 17.4013C115.875 16.8833 115.515 16.4738 115.053 16.1728C114.598 15.8648 114.062 15.7108 113.446 15.7108C112.837 15.7108 112.281 15.8648 111.777 16.1728C111.273 16.4808 110.874 16.8938 110.58 17.4118C110.286 17.9298 110.139 18.5038 110.139 19.1338C110.139 19.7708 110.289 20.3483 110.59 20.8663C110.898 21.3773 111.301 21.7868 111.798 22.0948C112.302 22.3958 112.851 22.5463 113.446 22.5463ZM123.679 11.5003V13.8838H126.64V16.0678H123.679V24.3838H121.495V16.0678H120.246V13.8838H121.495V11.5003C121.495 10.9263 121.635 10.4048 121.915 9.93579C122.195 9.45979 122.57 9.08179 123.039 8.80179C123.515 8.52179 124.043 8.38179 124.624 8.38179C125.044 8.38179 125.454 8.46579 125.853 8.63379C126.252 8.80179 126.609 9.06079 126.924 9.41079L125.359 10.9543C125.282 10.8283 125.174 10.7338 125.034 10.6708C124.901 10.6008 124.764 10.5658 124.624 10.5658C124.365 10.5658 124.141 10.6568 123.952 10.8388C123.77 11.0208 123.679 11.2413 123.679 11.5003ZM131.267 11.5003V13.8838H134.228V16.0678H131.267V24.3838H129.083V16.0678H127.834V13.8838H129.083V11.5003C129.083 10.9263 129.223 10.4048 129.503 9.93579C129.783 9.45979 130.158 9.08179 130.627 8.80179C131.103 8.52179 131.631 8.38179 132.212 8.38179C132.632 8.38179 133.042 8.46579 133.441 8.63379C133.84 8.80179 134.197 9.06079 134.512 9.41079L132.947 10.9543C132.87 10.8283 132.762 10.7338 132.622 10.6708C132.489 10.6008 132.352 10.5658 132.212 10.5658C131.953 10.5658 131.729 10.6568 131.54 10.8388C131.358 11.0208 131.267 11.2413 131.267 11.5003ZM140.325 24.6568C139.359 24.6568 138.477 24.4083 137.679 23.9113C136.888 23.4143 136.255 22.7493 135.779 21.9163C135.31 21.0763 135.075 20.1488 135.075 19.1338C135.075 18.3638 135.212 17.6463 135.485 16.9813C135.758 16.3093 136.132 15.7213 136.608 15.2173C137.091 14.7063 137.651 14.3073 138.288 14.0203C138.925 13.7333 139.604 13.5898 140.325 13.5898C141.291 13.5898 142.17 13.8383 142.961 14.3353C143.759 14.8323 144.392 15.5008 144.861 16.3408C145.337 17.1808 145.575 18.1118 145.575 19.1338C145.575 19.8968 145.439 20.6108 145.166 21.2758C144.893 21.9408 144.515 22.5288 144.032 23.0398C143.556 23.5438 142.999 23.9393 142.362 24.2263C141.732 24.5133 141.053 24.6568 140.325 24.6568ZM140.325 22.4728C140.906 22.4728 141.428 22.3188 141.89 22.0108C142.352 21.7028 142.716 21.2968 142.982 20.7928C143.255 20.2818 143.391 19.7288 143.391 19.1338C143.391 18.5248 143.251 17.9648 142.971 17.4538C142.698 16.9428 142.331 16.5368 141.869 16.2358C141.407 15.9278 140.892 15.7738 140.325 15.7738C139.751 15.7738 139.23 15.9278 138.761 16.2358C138.299 16.5438 137.931 16.9533 137.658 17.4643C137.392 17.9753 137.259 18.5318 137.259 19.1338C137.259 19.7568 137.399 20.3203 137.679 20.8243C137.959 21.3283 138.33 21.7308 138.792 22.0318C139.261 22.3258 139.772 22.4728 140.325 22.4728ZM147.128 24.3838V8.63379H149.312V24.3838H147.128ZM159.86 8.63379H162.044V24.3838H159.86V22.8403C159.517 23.3863 159.069 23.8273 158.516 24.1633C157.963 24.4923 157.316 24.6568 156.574 24.6568C155.811 24.6568 155.097 24.5133 154.432 24.2263C153.767 23.9393 153.179 23.5438 152.668 23.0398C152.164 22.5288 151.768 21.9408 151.481 21.2758C151.194 20.6108 151.051 19.8968 151.051 19.1338C151.051 18.3708 151.194 17.6568 151.481 16.9918C151.768 16.3198 152.164 15.7318 152.668 15.2278C153.179 14.7168 153.767 14.3178 154.432 14.0308C155.097 13.7438 155.811 13.6003 156.574 13.6003C157.316 13.6003 157.963 13.7683 158.516 14.1043C159.069 14.4333 159.517 14.8673 159.86 15.4063V8.63379ZM156.595 22.5463C157.211 22.5463 157.75 22.3958 158.212 22.0948C158.674 21.7868 159.031 21.3738 159.283 20.8558C159.542 20.3378 159.671 19.7638 159.671 19.1338C159.671 18.4968 159.542 17.9193 159.283 17.4013C159.024 16.8833 158.663 16.4738 158.201 16.1728C157.746 15.8648 157.211 15.7108 156.595 15.7108C155.986 15.7108 155.429 15.8648 154.925 16.1728C154.428 16.4808 154.029 16.8938 153.728 17.4118C153.434 17.9298 153.287 18.5038 153.287 19.1338C153.287 19.7708 153.438 20.3483 153.739 20.8663C154.047 21.3773 154.449 21.7868 154.946 22.0948C155.45 22.3958 156 22.5463 156.595 22.5463ZM164.56 13.8838H166.744V24.3838H164.56V13.8838ZM165.673 12.3613C165.337 12.3613 165.057 12.2528 164.833 12.0358C164.609 11.8188 164.497 11.5458 164.497 11.2168C164.497 10.8948 164.609 10.6253 164.833 10.4083C165.057 10.1843 165.333 10.0723 165.662 10.0723C165.984 10.0723 166.257 10.1843 166.481 10.4083C166.705 10.6253 166.817 10.8948 166.817 11.2168C166.817 11.5458 166.705 11.8188 166.481 12.0358C166.264 12.2528 165.995 12.3613 165.673 12.3613ZM178.624 17.8003V24.3838H176.44V18.3358C176.44 17.8668 176.325 17.4398 176.094 17.0548C175.87 16.6698 175.565 16.3653 175.18 16.1413C174.802 15.9103 174.375 15.7948 173.899 15.7948C173.437 15.7948 173.014 15.9103 172.629 16.1413C172.244 16.3653 171.936 16.6698 171.705 17.0548C171.474 17.4398 171.358 17.8668 171.358 18.3358V24.3838H169.174V13.8838H171.358V14.9968C171.722 14.5628 172.17 14.2198 172.702 13.9678C173.234 13.7158 173.808 13.5898 174.424 13.5898C175.201 13.5898 175.908 13.7788 176.545 14.1568C177.182 14.5348 177.686 15.0423 178.057 15.6793C178.435 16.3163 178.624 17.0233 178.624 17.8003ZM188.505 13.8838H190.689V24.6568C190.689 25.3778 190.535 26.0428 190.227 26.6518C189.926 27.2608 189.517 27.7858 188.999 28.2268C188.481 28.6748 187.886 29.0213 187.214 29.2663C186.549 29.5113 185.852 29.6338 185.124 29.6338C184.389 29.6338 183.682 29.4763 183.003 29.1613C182.324 28.8533 181.726 28.4333 181.208 27.9013C180.697 27.3693 180.315 26.7673 180.063 26.0953L182.069 25.1923C182.209 25.6263 182.433 26.0113 182.741 26.3473C183.056 26.6833 183.42 26.9493 183.833 27.1453C184.253 27.3413 184.683 27.4393 185.124 27.4393C185.558 27.4393 185.975 27.3693 186.374 27.2293C186.78 27.0963 187.14 26.9073 187.455 26.6623C187.777 26.4173 188.033 26.1233 188.222 25.7803C188.411 25.4373 188.505 25.0628 188.505 24.6568V22.8823C188.162 23.4143 187.721 23.8448 187.182 24.1738C186.643 24.4958 186.017 24.6568 185.303 24.6568C184.561 24.6568 183.861 24.5133 183.203 24.2263C182.545 23.9393 181.967 23.5438 181.47 23.0398C180.973 22.5288 180.585 21.9408 180.305 21.2758C180.025 20.6108 179.885 19.8968 179.885 19.1338C179.885 18.3708 180.025 17.6568 180.305 16.9918C180.585 16.3198 180.973 15.7318 181.47 15.2278C181.967 14.7168 182.545 14.3178 183.203 14.0308C183.861 13.7438 184.561 13.6003 185.303 13.6003C186.017 13.6003 186.643 13.7648 187.182 14.0938C187.721 14.4158 188.162 14.8463 188.505 15.3853V13.8838ZM185.324 22.5463C185.933 22.5463 186.465 22.3923 186.92 22.0843C187.375 21.7693 187.728 21.3528 187.98 20.8348C188.232 20.3168 188.358 19.7498 188.358 19.1338C188.358 18.5038 188.229 17.9333 187.97 17.4223C187.718 16.9043 187.364 16.4913 186.909 16.1833C186.454 15.8683 185.926 15.7108 185.324 15.7108C184.736 15.7108 184.197 15.8648 183.707 16.1728C183.224 16.4808 182.839 16.8938 182.552 17.4118C182.265 17.9298 182.121 18.5038 182.121 19.1338C182.121 19.7638 182.265 20.3378 182.552 20.8558C182.846 21.3738 183.234 21.7868 183.717 22.0948C184.207 22.3958 184.743 22.5463 185.324 22.5463Z" fill="#002F69"/>
<path d="M18.0558 0.383789V6.62912H7.1178V12.8399H17.2227V19.0853H7.1178V31.6154H0V0.383789H18.0558Z" fill="#002F69"/>
<path d="M16.9443 31.6154V25.37H27.8823V19.1592H17.7774V12.9139H27.8823V0.383789H35.0001V31.6154H16.9443Z" fill="#002F69"/>
</svg>
