<svg width="261" height="32" viewBox="0 0 261 32" fill="none" xmlns="http://www.w3.org/2000/svg">
<path d="M49.0603 24.3838V9.68379H57.7228V11.8678H51.2443V15.4168H56.7148V17.6008H51.2443V24.3838H49.0603ZM66.4988 13.8838H68.6828V24.3838H66.4883L66.4043 22.8613C66.0963 23.4003 65.6798 23.8343 65.1548 24.1633C64.6298 24.4923 64.0103 24.6568 63.2963 24.6568C62.5263 24.6568 61.8018 24.5133 61.1228 24.2263C60.4438 23.9323 59.8453 23.5263 59.3273 23.0083C58.8163 22.4903 58.4173 21.8953 58.1303 21.2233C57.8433 20.5443 57.6998 19.8163 57.6998 19.0393C57.6998 18.2903 57.8398 17.5868 58.1198 16.9288C58.3998 16.2638 58.7883 15.6828 59.2853 15.1858C59.7823 14.6888 60.3563 14.3003 61.0073 14.0203C61.6653 13.7333 62.3688 13.5898 63.1178 13.5898C63.8808 13.5898 64.5528 13.7648 65.1338 14.1148C65.7218 14.4578 66.2083 14.8988 66.5933 15.4378L66.4988 13.8838ZM63.2438 22.5463C63.8598 22.5463 64.3988 22.3958 64.8608 22.0948C65.3228 21.7868 65.6798 21.3738 65.9318 20.8558C66.1908 20.3378 66.3203 19.7638 66.3203 19.1338C66.3203 18.4968 66.1908 17.9193 65.9318 17.4013C65.6728 16.8833 65.3123 16.4738 64.8503 16.1728C64.3953 15.8648 63.8598 15.7108 63.2438 15.7108C62.6348 15.7108 62.0783 15.8648 61.5743 16.1728C61.0703 16.4808 60.6713 16.8938 60.3773 17.4118C60.0833 17.9298 59.9363 18.5038 59.9363 19.1338C59.9363 19.7708 60.0868 20.3483 60.3878 20.8663C60.6958 21.3773 61.0983 21.7868 61.5953 22.0948C62.0993 22.3958 62.6488 22.5463 63.2438 22.5463ZM77.4295 21.4018L79.3825 22.4623C78.9065 23.1273 78.301 23.6593 77.566 24.0583C76.838 24.4573 76.047 24.6568 75.193 24.6568C74.227 24.6568 73.345 24.4083 72.547 23.9113C71.756 23.4143 71.1225 22.7493 70.6465 21.9163C70.1775 21.0763 69.943 20.1488 69.943 19.1338C69.943 18.3638 70.0795 17.6463 70.3525 16.9813C70.6255 16.3093 71 15.7213 71.476 15.2173C71.959 14.7063 72.519 14.3073 73.156 14.0203C73.793 13.7333 74.472 13.5898 75.193 13.5898C76.047 13.5898 76.838 13.7893 77.566 14.1883C78.301 14.5873 78.9065 15.1228 79.3825 15.7948L77.4295 16.8553C77.1355 16.5053 76.7925 16.2393 76.4005 16.0573C76.0085 15.8683 75.606 15.7738 75.193 15.7738C74.619 15.7738 74.0975 15.9313 73.6285 16.2463C73.1665 16.5543 72.799 16.9638 72.526 17.4748C72.26 17.9788 72.127 18.5318 72.127 19.1338C72.127 19.7288 72.2635 20.2818 72.5365 20.7928C72.8095 21.2968 73.177 21.7028 73.639 22.0108C74.108 22.3188 74.626 22.4728 75.193 22.4728C75.627 22.4728 76.04 22.3748 76.432 22.1788C76.824 21.9828 77.1565 21.7238 77.4295 21.4018ZM85.6315 24.6568C84.6655 24.6568 83.7835 24.4083 82.9855 23.9113C82.1945 23.4143 81.561 22.7493 81.085 21.9163C80.616 21.0763 80.3815 20.1488 80.3815 19.1338C80.3815 18.3638 80.518 17.6463 80.791 16.9813C81.064 16.3093 81.4385 15.7213 81.9145 15.2173C82.3975 14.7063 82.9575 14.3073 83.5945 14.0203C84.2315 13.7333 84.9105 13.5898 85.6315 13.5898C86.4365 13.5898 87.175 13.7578 87.847 14.0938C88.519 14.4228 89.093 14.8813 89.569 15.4693C90.045 16.0503 90.395 16.7223 90.619 17.4853C90.843 18.2413 90.9095 19.0463 90.8185 19.9003H82.723C82.814 20.3833 82.989 20.8208 83.248 21.2128C83.514 21.5978 83.85 21.9023 84.256 22.1263C84.669 22.3503 85.1275 22.4658 85.6315 22.4728C86.1635 22.4728 86.6465 22.3398 87.0805 22.0738C87.5215 21.8078 87.882 21.4403 88.162 20.9713L90.3775 21.4858C89.9575 22.4168 89.324 23.1798 88.477 23.7748C87.63 24.3628 86.6815 24.6568 85.6315 24.6568ZM82.6495 18.2308H88.6135C88.5435 17.7268 88.365 17.2718 88.078 16.8658C87.798 16.4528 87.4445 16.1273 87.0175 15.8893C86.5975 15.6443 86.1355 15.5218 85.6315 15.5218C85.1345 15.5218 84.6725 15.6408 84.2455 15.8788C83.8255 16.1168 83.4755 16.4423 83.1955 16.8553C82.9225 17.2613 82.7405 17.7198 82.6495 18.2308ZM92.3219 24.3838V22.4413C92.8189 22.0283 93.3894 21.5488 94.0334 21.0028C94.6774 20.4498 95.3319 19.8653 95.9969 19.2493C96.6619 18.6263 97.2744 18.0068 97.8344 17.3908C98.3944 16.7678 98.8459 16.1798 99.1889 15.6268C99.5389 15.0668 99.7139 14.5803 99.7139 14.1673C99.7139 13.6983 99.5984 13.2713 99.3674 12.8863C99.1434 12.4943 98.8389 12.1828 98.4539 11.9518C98.0689 11.7138 97.6419 11.5948 97.1729 11.5948C96.7039 11.5948 96.2734 11.7138 95.8814 11.9518C95.4964 12.1828 95.1849 12.4943 94.9469 12.8863C94.7159 13.2713 94.6004 13.6983 94.6004 14.1673H92.4164C92.4164 13.2783 92.6334 12.4768 93.0674 11.7628C93.5084 11.0418 94.0859 10.4713 94.7999 10.0513C95.5209 9.62429 96.3119 9.41079 97.1729 9.41079C98.0409 9.41079 98.8319 9.62429 99.5459 10.0513C100.26 10.4783 100.83 11.0523 101.257 11.7733C101.684 12.4873 101.898 13.2853 101.898 14.1673C101.898 14.6573 101.796 15.1613 101.593 15.6793C101.39 16.1973 101.107 16.7258 100.743 17.2648C100.386 17.8038 99.9694 18.3498 99.4934 18.9028C99.0174 19.4558 98.5064 20.0088 97.9604 20.5618C97.4144 21.1148 96.8579 21.6608 96.2909 22.1998H102.024V24.3838H92.3219ZM104.534 24.3838V9.68379H113.196V11.8678H106.718V15.4168H112.188V17.6008H106.718V24.3838H104.534ZM121.972 13.8838H124.156V24.3838H121.962L121.878 22.8613C121.57 23.4003 121.153 23.8343 120.628 24.1633C120.103 24.4923 119.484 24.6568 118.77 24.6568C118 24.6568 117.275 24.5133 116.596 24.2263C115.917 23.9323 115.319 23.5263 114.801 23.0083C114.29 22.4903 113.891 21.8953 113.604 21.2233C113.317 20.5443 113.173 19.8163 113.173 19.0393C113.173 18.2903 113.313 17.5868 113.593 16.9288C113.873 16.2638 114.262 15.6828 114.759 15.1858C115.256 14.6888 115.83 14.3003 116.481 14.0203C117.139 13.7333 117.842 13.5898 118.591 13.5898C119.354 13.5898 120.026 13.7648 120.607 14.1148C121.195 14.4578 121.682 14.8988 122.067 15.4378L121.972 13.8838ZM118.717 22.5463C119.333 22.5463 119.872 22.3958 120.334 22.0948C120.796 21.7868 121.153 21.3738 121.405 20.8558C121.664 20.3378 121.794 19.7638 121.794 19.1338C121.794 18.4968 121.664 17.9193 121.405 17.4013C121.146 16.8833 120.786 16.4738 120.324 16.1728C119.869 15.8648 119.333 15.7108 118.717 15.7108C118.108 15.7108 117.552 15.8648 117.048 16.1728C116.544 16.4808 116.145 16.8938 115.851 17.4118C115.557 17.9298 115.41 18.5038 115.41 19.1338C115.41 19.7708 115.56 20.3483 115.861 20.8663C116.169 21.3773 116.572 21.7868 117.069 22.0948C117.573 22.3958 118.122 22.5463 118.717 22.5463ZM132.903 21.4018L134.856 22.4623C134.38 23.1273 133.775 23.6593 133.04 24.0583C132.312 24.4573 131.521 24.6568 130.667 24.6568C129.701 24.6568 128.819 24.4083 128.021 23.9113C127.23 23.4143 126.596 22.7493 126.12 21.9163C125.651 21.0763 125.417 20.1488 125.417 19.1338C125.417 18.3638 125.553 17.6463 125.826 16.9813C126.099 16.3093 126.474 15.7213 126.95 15.2173C127.433 14.7063 127.993 14.3073 128.63 14.0203C129.267 13.7333 129.946 13.5898 130.667 13.5898C131.521 13.5898 132.312 13.7893 133.04 14.1883C133.775 14.5873 134.38 15.1228 134.856 15.7948L132.903 16.8553C132.609 16.5053 132.266 16.2393 131.874 16.0573C131.482 15.8683 131.08 15.7738 130.667 15.7738C130.093 15.7738 129.571 15.9313 129.102 16.2463C128.64 16.5543 128.273 16.9638 128 17.4748C127.734 17.9788 127.601 18.5318 127.601 19.1338C127.601 19.7288 127.737 20.2818 128.01 20.7928C128.283 21.2968 128.651 21.7028 129.113 22.0108C129.582 22.3188 130.1 22.4728 130.667 22.4728C131.101 22.4728 131.514 22.3748 131.906 22.1788C132.298 21.9828 132.63 21.7238 132.903 21.4018ZM141.105 24.6568C140.139 24.6568 139.257 24.4083 138.459 23.9113C137.668 23.4143 137.035 22.7493 136.559 21.9163C136.09 21.0763 135.855 20.1488 135.855 19.1338C135.855 18.3638 135.992 17.6463 136.265 16.9813C136.538 16.3093 136.912 15.7213 137.388 15.2173C137.871 14.7063 138.431 14.3073 139.068 14.0203C139.705 13.7333 140.384 13.5898 141.105 13.5898C141.91 13.5898 142.649 13.7578 143.321 14.0938C143.993 14.4228 144.567 14.8813 145.043 15.4693C145.519 16.0503 145.869 16.7223 146.093 17.4853C146.317 18.2413 146.383 19.0463 146.292 19.9003H138.197C138.288 20.3833 138.463 20.8208 138.722 21.2128C138.988 21.5978 139.324 21.9023 139.73 22.1263C140.143 22.3503 140.601 22.4658 141.105 22.4728C141.637 22.4728 142.12 22.3398 142.554 22.0738C142.995 21.8078 143.356 21.4403 143.636 20.9713L145.851 21.4858C145.431 22.4168 144.798 23.1798 143.951 23.7748C143.104 24.3628 142.155 24.6568 141.105 24.6568ZM138.123 18.2308H144.087C144.017 17.7268 143.839 17.2718 143.552 16.8658C143.272 16.4528 142.918 16.1273 142.491 15.8893C142.071 15.6443 141.609 15.5218 141.105 15.5218C140.608 15.5218 140.146 15.6408 139.719 15.8788C139.299 16.1168 138.949 16.4423 138.669 16.8553C138.396 17.2613 138.214 17.7198 138.123 18.2308ZM158.5 24.6568C157.695 24.6568 156.921 24.5308 156.179 24.2788C155.437 24.0268 154.79 23.6663 154.237 23.1973C153.684 22.7213 153.288 22.1578 153.05 21.5068L155.098 20.7403C155.217 21.0763 155.444 21.3773 155.78 21.6433C156.123 21.9023 156.529 22.1053 156.998 22.2523C157.474 22.3993 157.975 22.4728 158.5 22.4728C159.06 22.4728 159.585 22.3818 160.075 22.1998C160.572 22.0178 160.971 21.7658 161.272 21.4438C161.58 21.1218 161.734 20.7438 161.734 20.3098C161.734 19.8618 161.573 19.4943 161.251 19.2073C160.936 18.9203 160.53 18.6928 160.033 18.5248C159.543 18.3568 159.032 18.2308 158.5 18.1468C157.471 17.9788 156.547 17.7338 155.728 17.4118C154.916 17.0898 154.272 16.6383 153.796 16.0573C153.327 15.4763 153.092 14.7203 153.092 13.7893C153.092 12.9143 153.341 12.1513 153.838 11.5003C154.342 10.8493 155.003 10.3453 155.822 9.98829C156.648 9.62429 157.541 9.44229 158.5 9.44229C159.291 9.44229 160.054 9.56829 160.789 9.82029C161.531 10.0653 162.182 10.4258 162.742 10.9018C163.309 11.3708 163.715 11.9413 163.96 12.6133L161.891 13.3588C161.772 13.0158 161.545 12.7183 161.209 12.4663C160.873 12.2073 160.467 12.0043 159.991 11.8573C159.522 11.7103 159.025 11.6368 158.5 11.6368C157.94 11.6298 157.415 11.7208 156.925 11.9098C156.442 12.0918 156.046 12.3438 155.738 12.6658C155.43 12.9878 155.276 13.3623 155.276 13.7893C155.276 14.3143 155.42 14.7133 155.707 14.9863C155.994 15.2593 156.379 15.4623 156.862 15.5953C157.352 15.7213 157.898 15.8368 158.5 15.9418C159.466 16.0958 160.358 16.3513 161.177 16.7083C162.003 17.0653 162.665 17.5413 163.162 18.1363C163.666 18.7243 163.918 19.4488 163.918 20.3098C163.918 21.1778 163.666 21.9408 163.162 22.5988C162.665 23.2498 162.003 23.7573 161.177 24.1213C160.358 24.4783 159.466 24.6568 158.5 24.6568ZM172.852 21.4018L174.805 22.4623C174.329 23.1273 173.724 23.6593 172.989 24.0583C172.261 24.4573 171.47 24.6568 170.616 24.6568C169.65 24.6568 168.768 24.4083 167.97 23.9113C167.179 23.4143 166.545 22.7493 166.069 21.9163C165.6 21.0763 165.366 20.1488 165.366 19.1338C165.366 18.3638 165.502 17.6463 165.775 16.9813C166.048 16.3093 166.423 15.7213 166.899 15.2173C167.382 14.7063 167.942 14.3073 168.579 14.0203C169.216 13.7333 169.895 13.5898 170.616 13.5898C171.47 13.5898 172.261 13.7893 172.989 14.1883C173.724 14.5873 174.329 15.1228 174.805 15.7948L172.852 16.8553C172.558 16.5053 172.215 16.2393 171.823 16.0573C171.431 15.8683 171.029 15.7738 170.616 15.7738C170.042 15.7738 169.52 15.9313 169.051 16.2463C168.589 16.5543 168.222 16.9638 167.949 17.4748C167.683 17.9788 167.55 18.5318 167.55 19.1338C167.55 19.7288 167.686 20.2818 167.959 20.7928C168.232 21.2968 168.6 21.7028 169.062 22.0108C169.531 22.3188 170.049 22.4728 170.616 22.4728C171.05 22.4728 171.463 22.3748 171.855 22.1788C172.247 21.9828 172.579 21.7238 172.852 21.4018ZM184.603 13.8838H186.787V24.3838H184.593L184.509 22.8613C184.201 23.4003 183.784 23.8343 183.259 24.1633C182.734 24.4923 182.115 24.6568 181.401 24.6568C180.631 24.6568 179.906 24.5133 179.227 24.2263C178.548 23.9323 177.95 23.5263 177.432 23.0083C176.921 22.4903 176.522 21.8953 176.235 21.2233C175.948 20.5443 175.804 19.8163 175.804 19.0393C175.804 18.2903 175.944 17.5868 176.224 16.9288C176.504 16.2638 176.893 15.6828 177.39 15.1858C177.887 14.6888 178.461 14.3003 179.112 14.0203C179.77 13.7333 180.473 13.5898 181.222 13.5898C181.985 13.5898 182.657 13.7648 183.238 14.1148C183.826 14.4578 184.313 14.8988 184.698 15.4378L184.603 13.8838ZM181.348 22.5463C181.964 22.5463 182.503 22.3958 182.965 22.0948C183.427 21.7868 183.784 21.3738 184.036 20.8558C184.295 20.3378 184.425 19.7638 184.425 19.1338C184.425 18.4968 184.295 17.9193 184.036 17.4013C183.777 16.8833 183.417 16.4738 182.955 16.1728C182.5 15.8648 181.964 15.7108 181.348 15.7108C180.739 15.7108 180.183 15.8648 179.679 16.1728C179.175 16.4808 178.776 16.8938 178.482 17.4118C178.188 17.9298 178.041 18.5038 178.041 19.1338C178.041 19.7708 178.191 20.3483 178.492 20.8663C178.8 21.3773 179.203 21.7868 179.7 22.0948C180.204 22.3958 180.753 22.5463 181.348 22.5463ZM191.581 11.5003V13.8838H194.542V16.0678H191.581V24.3838H189.397V16.0678H188.148V13.8838H189.397V11.5003C189.397 10.9263 189.537 10.4048 189.817 9.93579C190.097 9.45979 190.472 9.08179 190.941 8.80179C191.417 8.52179 191.945 8.38179 192.526 8.38179C192.946 8.38179 193.356 8.46579 193.755 8.63379C194.154 8.80179 194.511 9.06079 194.826 9.41079L193.261 10.9543C193.184 10.8283 193.076 10.7338 192.936 10.6708C192.803 10.6008 192.666 10.5658 192.526 10.5658C192.267 10.5658 192.043 10.6568 191.854 10.8388C191.672 11.0208 191.581 11.2413 191.581 11.5003ZM199.169 11.5003V13.8838H202.13V16.0678H199.169V24.3838H196.985V16.0678H195.735V13.8838H196.985V11.5003C196.985 10.9263 197.125 10.4048 197.405 9.93579C197.685 9.45979 198.059 9.08179 198.528 8.80179C199.004 8.52179 199.533 8.38179 200.114 8.38179C200.534 8.38179 200.943 8.46579 201.342 8.63379C201.741 8.80179 202.098 9.06079 202.413 9.41079L200.849 10.9543C200.772 10.8283 200.663 10.7338 200.523 10.6708C200.39 10.6008 200.254 10.5658 200.114 10.5658C199.855 10.5658 199.631 10.6568 199.442 10.8388C199.26 11.0208 199.169 11.2413 199.169 11.5003ZM208.227 24.6568C207.261 24.6568 206.379 24.4083 205.581 23.9113C204.79 23.4143 204.157 22.7493 203.681 21.9163C203.212 21.0763 202.977 20.1488 202.977 19.1338C202.977 18.3638 203.114 17.6463 203.387 16.9813C203.66 16.3093 204.034 15.7213 204.51 15.2173C204.993 14.7063 205.553 14.3073 206.19 14.0203C206.827 13.7333 207.506 13.5898 208.227 13.5898C209.193 13.5898 210.072 13.8383 210.863 14.3353C211.661 14.8323 212.294 15.5008 212.763 16.3408C213.239 17.1808 213.477 18.1118 213.477 19.1338C213.477 19.8968 213.341 20.6108 213.068 21.2758C212.795 21.9408 212.417 22.5288 211.934 23.0398C211.458 23.5438 210.901 23.9393 210.264 24.2263C209.634 24.5133 208.955 24.6568 208.227 24.6568ZM208.227 22.4728C208.808 22.4728 209.33 22.3188 209.792 22.0108C210.254 21.7028 210.618 21.2968 210.884 20.7928C211.157 20.2818 211.293 19.7288 211.293 19.1338C211.293 18.5248 211.153 17.9648 210.873 17.4538C210.6 16.9428 210.233 16.5368 209.771 16.2358C209.309 15.9278 208.794 15.7738 208.227 15.7738C207.653 15.7738 207.132 15.9278 206.663 16.2358C206.201 16.5438 205.833 16.9533 205.56 17.4643C205.294 17.9753 205.161 18.5318 205.161 19.1338C205.161 19.7568 205.301 20.3203 205.581 20.8243C205.861 21.3283 206.232 21.7308 206.694 22.0318C207.163 22.3258 207.674 22.4728 208.227 22.4728ZM215.03 24.3838V8.63379H217.214V24.3838H215.03ZM227.762 8.63379H229.946V24.3838H227.762V22.8403C227.419 23.3863 226.971 23.8273 226.418 24.1633C225.865 24.4923 225.218 24.6568 224.476 24.6568C223.713 24.6568 222.999 24.5133 222.334 24.2263C221.669 23.9393 221.081 23.5438 220.57 23.0398C220.066 22.5288 219.67 21.9408 219.383 21.2758C219.096 20.6108 218.953 19.8968 218.953 19.1338C218.953 18.3708 219.096 17.6568 219.383 16.9918C219.67 16.3198 220.066 15.7318 220.57 15.2278C221.081 14.7168 221.669 14.3178 222.334 14.0308C222.999 13.7438 223.713 13.6003 224.476 13.6003C225.218 13.6003 225.865 13.7683 226.418 14.1043C226.971 14.4333 227.419 14.8673 227.762 15.4063V8.63379ZM224.497 22.5463C225.113 22.5463 225.652 22.3958 226.114 22.0948C226.576 21.7868 226.933 21.3738 227.185 20.8558C227.444 20.3378 227.573 19.7638 227.573 19.1338C227.573 18.4968 227.444 17.9193 227.185 17.4013C226.926 16.8833 226.565 16.4738 226.103 16.1728C225.648 15.8648 225.113 15.7108 224.497 15.7108C223.888 15.7108 223.331 15.8648 222.827 16.1728C222.33 16.4808 221.931 16.8938 221.63 17.4118C221.336 17.9298 221.189 18.5038 221.189 19.1338C221.189 19.7708 221.34 20.3483 221.641 20.8663C221.949 21.3773 222.351 21.7868 222.848 22.0948C223.352 22.3958 223.902 22.5463 224.497 22.5463ZM232.462 13.8838H234.646V24.3838H232.462V13.8838ZM233.575 12.3613C233.239 12.3613 232.959 12.2528 232.735 12.0358C232.511 11.8188 232.399 11.5458 232.399 11.2168C232.399 10.8948 232.511 10.6253 232.735 10.4083C232.959 10.1843 233.235 10.0723 233.564 10.0723C233.886 10.0723 234.159 10.1843 234.383 10.4083C234.607 10.6253 234.719 10.8948 234.719 11.2168C234.719 11.5458 234.607 11.8188 234.383 12.0358C234.166 12.2528 233.897 12.3613 233.575 12.3613ZM246.526 17.8003V24.3838H244.342V18.3358C244.342 17.8668 244.226 17.4398 243.995 17.0548C243.771 16.6698 243.467 16.3653 243.082 16.1413C242.704 15.9103 242.277 15.7948 241.801 15.7948C241.339 15.7948 240.915 15.9103 240.53 16.1413C240.145 16.3653 239.837 16.6698 239.606 17.0548C239.375 17.4398 239.26 17.8668 239.26 18.3358V24.3838H237.076V13.8838H239.26V14.9968C239.624 14.5628 240.072 14.2198 240.604 13.9678C241.136 13.7158 241.71 13.5898 242.326 13.5898C243.103 13.5898 243.81 13.7788 244.447 14.1568C245.084 14.5348 245.588 15.0423 245.959 15.6793C246.337 16.3163 246.526 17.0233 246.526 17.8003ZM256.407 13.8838H258.591V24.6568C258.591 25.3778 258.437 26.0428 258.129 26.6518C257.828 27.2608 257.419 27.7858 256.901 28.2268C256.383 28.6748 255.788 29.0213 255.116 29.2663C254.451 29.5113 253.754 29.6338 253.026 29.6338C252.291 29.6338 251.584 29.4763 250.905 29.1613C250.226 28.8533 249.628 28.4333 249.11 27.9013C248.599 27.3693 248.217 26.7673 247.965 26.0953L249.971 25.1923C250.111 25.6263 250.335 26.0113 250.643 26.3473C250.958 26.6833 251.322 26.9493 251.735 27.1453C252.155 27.3413 252.585 27.4393 253.026 27.4393C253.46 27.4393 253.877 27.3693 254.276 27.2293C254.682 27.0963 255.042 26.9073 255.357 26.6623C255.679 26.4173 255.935 26.1233 256.124 25.7803C256.313 25.4373 256.407 25.0628 256.407 24.6568V22.8823C256.064 23.4143 255.623 23.8448 255.084 24.1738C254.545 24.4958 253.919 24.6568 253.205 24.6568C252.463 24.6568 251.763 24.5133 251.105 24.2263C250.447 23.9393 249.869 23.5438 249.372 23.0398C248.875 22.5288 248.487 21.9408 248.207 21.2758C247.927 20.6108 247.787 19.8968 247.787 19.1338C247.787 18.3708 247.927 17.6568 248.207 16.9918C248.487 16.3198 248.875 15.7318 249.372 15.2278C249.869 14.7168 250.447 14.3178 251.105 14.0308C251.763 13.7438 252.463 13.6003 253.205 13.6003C253.919 13.6003 254.545 13.7648 255.084 14.0938C255.623 14.4158 256.064 14.8463 256.407 15.3853V13.8838ZM253.226 22.5463C253.835 22.5463 254.367 22.3923 254.822 22.0843C255.277 21.7693 255.63 21.3528 255.882 20.8348C256.134 20.3168 256.26 19.7498 256.26 19.1338C256.26 18.5038 256.131 17.9333 255.872 17.4223C255.62 16.9043 255.266 16.4913 254.811 16.1833C254.356 15.8683 253.828 15.7108 253.226 15.7108C252.638 15.7108 252.099 15.8648 251.609 16.1728C251.126 16.4808 250.741 16.8938 250.454 17.4118C250.167 17.9298 250.023 18.5038 250.023 19.1338C250.023 19.7638 250.167 20.3378 250.454 20.8558C250.748 21.3738 251.136 21.7868 251.619 22.0948C252.109 22.3958 252.645 22.5463 253.226 22.5463Z" fill="#002F69"/>
<path d="M18.856 0.383789V6.62912H7.91809V12.8399H18.023V19.0853H7.91809V31.6154H0.800293V0.383789H18.856Z" fill="#002F69"/>
<path d="M17.7446 31.6154V25.37H28.6826V19.1592H18.5777V12.9139H28.6826V0.383789H35.8004V31.6154H17.7446Z" fill="#002F69"/>
</svg>
