<svg width="32" height="33" viewBox="0 0 32 33" fill="none" xmlns="http://www.w3.org/2000/svg">
<path d="M26.6666 28.3164C26.6666 26.4557 26.6666 25.5253 26.437 24.7682C25.9199 23.0637 24.586 21.7298 22.8815 21.2127C22.1244 20.9831 21.1941 20.9831 19.3333 20.9831H12.6667C10.8059 20.9831 9.87552 20.9831 9.11846 21.2127C7.41392 21.7298 6.08003 23.0637 5.56297 24.7682C5.33331 25.5253 5.33331 26.4557 5.33331 28.3164M22 10.3164C22 13.6301 19.3137 16.3164 16 16.3164C12.6863 16.3164 9.99998 13.6301 9.99998 10.3164C9.99998 7.0027 12.6863 4.31641 16 4.31641C19.3137 4.31641 22 7.0027 22 10.3164Z" stroke="#002F69" stroke-width="2" stroke-linecap="round" stroke-linejoin="round"/>
</svg>
