<svg width="31" height="35" viewBox="0 0 31 35" fill="none" xmlns="http://www.w3.org/2000/svg">
<path d="M16.932 34.9399C14.66 34.9399 12.524 34.4919 10.524 33.5959C8.524 32.6839 6.764 31.4359 5.244 29.8519C3.74 28.2519 2.556 26.3959 1.692 24.2839C0.844 22.1719 0.42 19.9159 0.42 17.5159C0.42 15.1159 0.844 12.8599 1.692 10.7479C2.556 8.63592 3.74 6.78792 5.244 5.20392C6.764 3.60392 8.524 2.35592 10.524 1.45992C12.524 0.547915 14.66 0.0919151 16.932 0.0919151C19.652 0.0919151 22.156 0.723915 24.444 1.98792C26.732 3.25192 28.628 4.93192 30.132 7.02792L25.692 9.40392C24.652 8.09192 23.364 7.04392 21.828 6.25992C20.292 5.47592 18.66 5.08392 16.932 5.08392C15.332 5.08392 13.836 5.41192 12.444 6.06792C11.052 6.72392 9.828 7.61992 8.772 8.75592C7.716 9.89192 6.892 11.2119 6.3 12.7159C5.708 14.2199 5.412 15.8199 5.412 17.5159C5.412 19.2279 5.708 20.8359 6.3 22.3399C6.892 23.8279 7.716 25.1479 8.772 26.2999C9.844 27.4359 11.076 28.3319 12.468 28.9879C13.86 29.6279 15.348 29.9479 16.932 29.9479C18.692 29.9479 20.332 29.5559 21.852 28.7719C23.388 27.9719 24.668 26.9159 25.692 25.6039L30.132 28.0279C28.628 30.1239 26.732 31.8039 24.444 33.0679C22.156 34.3159 19.652 34.9399 16.932 34.9399Z" fill="#002F69"/>
</svg>
