<svg width="260" height="45" viewBox="0 0 260 45" fill="none" xmlns="http://www.w3.org/2000/svg">
<rect x="0.5" y="1.18384" width="43" height="43" rx="21.5" fill="#002F69"/>
<rect x="0.5" y="1.18384" width="43" height="43" rx="21.5" stroke="#002F69"/>
<path d="M21.1586 11.9938C21.5522 11.381 22.4478 11.381 22.8414 11.9938L25.8804 16.7253C26.0158 16.9361 26.2255 17.0884 26.4678 17.152L31.9068 18.5802C32.6112 18.7652 32.888 19.617 32.4268 20.1806L28.8661 24.533C28.7074 24.727 28.6273 24.9734 28.6417 25.2236L28.9641 30.8377C29.0059 31.5648 28.2813 32.0912 27.6028 31.8268L22.363 29.7853C22.1296 29.6943 21.8704 29.6943 21.637 29.7853L16.3973 31.8268C15.7187 32.0912 14.9941 31.5648 15.0359 30.8377L15.3583 25.2236C15.3727 24.9734 15.2926 24.727 15.1339 24.533L11.5732 20.1806C11.112 19.617 11.3888 18.7652 12.0932 18.5802L17.5322 17.152C17.7745 17.0884 17.9842 16.9361 18.1196 16.7253L21.1586 11.9938Z" fill="#FFE600"/>
<rect x="54.5" y="1.18384" width="43" height="43" rx="21.5" fill="#002F69"/>
<rect x="54.5" y="1.18384" width="43" height="43" rx="21.5" stroke="#002F69"/>
<path d="M75.1586 11.9938C75.5522 11.381 76.4478 11.381 76.8414 11.9938L79.8804 16.7253C80.0158 16.9361 80.2255 17.0884 80.4678 17.152L85.9068 18.5802C86.6112 18.7652 86.888 19.617 86.4268 20.1806L82.8661 24.533C82.7074 24.727 82.6273 24.9734 82.6417 25.2236L82.9641 30.8377C83.0059 31.5648 82.2813 32.0912 81.6028 31.8268L76.363 29.7853C76.1296 29.6943 75.8704 29.6943 75.637 29.7853L70.3973 31.8268C69.7187 32.0912 68.9941 31.5648 69.0359 30.8377L69.3583 25.2236C69.3727 24.9734 69.2926 24.727 69.1339 24.533L65.5732 20.1806C65.112 19.617 65.3888 18.7652 66.0932 18.5802L71.5322 17.152C71.7745 17.0884 71.9842 16.9361 72.1196 16.7253L75.1586 11.9938Z" fill="#FFE600"/>
<rect x="108.5" y="1.18384" width="43" height="43" rx="21.5" fill="#002F69"/>
<rect x="108.5" y="1.18384" width="43" height="43" rx="21.5" stroke="#002F69"/>
<path d="M129.159 11.9938C129.552 11.381 130.448 11.381 130.841 11.9938L133.88 16.7253C134.016 16.9361 134.225 17.0884 134.468 17.152L139.907 18.5802C140.611 18.7652 140.888 19.617 140.427 20.1806L136.866 24.533C136.707 24.727 136.627 24.9734 136.642 25.2236L136.964 30.8377C137.006 31.5648 136.281 32.0912 135.603 31.8268L130.363 29.7853C130.13 29.6943 129.87 29.6943 129.637 29.7853L124.397 31.8268C123.719 32.0912 122.994 31.5648 123.036 30.8377L123.358 25.2236C123.373 24.9734 123.293 24.727 123.134 24.533L119.573 20.1806C119.112 19.617 119.389 18.7652 120.093 18.5802L125.532 17.152C125.775 17.0884 125.984 16.9361 126.12 16.7253L129.159 11.9938Z" fill="#FFE600"/>
<rect x="162.5" y="1.18384" width="43" height="43" rx="21.5" fill="#002F69"/>
<rect x="162.5" y="1.18384" width="43" height="43" rx="21.5" stroke="#002F69"/>
<path d="M183.159 11.9938C183.552 11.381 184.448 11.381 184.841 11.9938L187.88 16.7253C188.016 16.9361 188.225 17.0884 188.468 17.152L193.907 18.5802C194.611 18.7652 194.888 19.617 194.427 20.1806L190.866 24.533C190.707 24.727 190.627 24.9734 190.642 25.2236L190.964 30.8377C191.006 31.5648 190.281 32.0912 189.603 31.8268L184.363 29.7853C184.13 29.6943 183.87 29.6943 183.637 29.7853L178.397 31.8268C177.719 32.0912 176.994 31.5648 177.036 30.8377L177.358 25.2236C177.373 24.9734 177.293 24.727 177.134 24.533L173.573 20.1806C173.112 19.617 173.389 18.7652 174.093 18.5802L179.532 17.152C179.775 17.0884 179.984 16.9361 180.12 16.7253L183.159 11.9938Z" fill="#FFE600"/>
<rect x="216.5" y="1.18384" width="43" height="43" rx="21.5" fill="#002F69"/>
<rect x="216.5" y="1.18384" width="43" height="43" rx="21.5" stroke="#002F69"/>
<path d="M237.159 11.9938C237.552 11.381 238.448 11.381 238.841 11.9938L241.88 16.7253C242.016 16.9361 242.225 17.0884 242.468 17.152L247.907 18.5802C248.611 18.7652 248.888 19.617 248.427 20.1806L244.866 24.533C244.707 24.727 244.627 24.9734 244.642 25.2236L244.964 30.8377C245.006 31.5648 244.281 32.0912 243.603 31.8268L238.363 29.7853C238.13 29.6943 237.87 29.6943 237.637 29.7853L232.397 31.8268C231.719 32.0912 230.994 31.5648 231.036 30.8377L231.358 25.2236C231.373 24.9734 231.293 24.727 231.134 24.533L227.573 20.1806C227.112 19.617 227.389 18.7652 228.093 18.5802L233.532 17.152C233.775 17.0884 233.984 16.9361 234.12 16.7253L237.159 11.9938Z" fill="#FFE600"/>
</svg>
