<svg width="334" height="47" viewBox="0 0 334 47" fill="none" xmlns="http://www.w3.org/2000/svg">
<path d="M32.6314 0.564392V9.73723H13.7026V18.8593H31.1899V28.0323H13.7026V46.4357H1.38477V0.564392H32.6314Z" fill="white"/>
<path d="M30.708 46.4357V37.2629H49.6368V28.1408H32.1496V18.968H49.6368V0.564392H61.9547V46.4357H30.708Z" fill="white"/>
<path d="M77.5 32V14.5H87.8125V17.1H80.1V21.325H86.6125V23.925H80.1V32H77.5ZM98.2602 19.5H100.86V32H98.2477L98.1477 30.1875C97.781 30.8292 97.2852 31.3458 96.6602 31.7375C96.0352 32.1292 95.2977 32.325 94.4477 32.325C93.531 32.325 92.6685 32.1542 91.8602 31.8125C91.0518 31.4625 90.3393 30.9792 89.7227 30.3625C89.1143 29.7458 88.6393 29.0375 88.2977 28.2375C87.956 27.4292 87.7852 26.5625 87.7852 25.6375C87.7852 24.7458 87.9518 23.9083 88.2852 23.125C88.6185 22.3333 89.081 21.6417 89.6727 21.05C90.2643 20.4583 90.9477 19.9958 91.7227 19.6625C92.506 19.3208 93.3435 19.15 94.2352 19.15C95.1435 19.15 95.9435 19.3583 96.6352 19.775C97.3352 20.1833 97.9143 20.7083 98.3727 21.35L98.2602 19.5ZM94.3852 29.8125C95.1185 29.8125 95.7602 29.6333 96.3102 29.275C96.8602 28.9083 97.2852 28.4167 97.5852 27.8C97.8935 27.1833 98.0477 26.5 98.0477 25.75C98.0477 24.9917 97.8935 24.3042 97.5852 23.6875C97.2768 23.0708 96.8477 22.5833 96.2977 22.225C95.756 21.8583 95.1185 21.675 94.3852 21.675C93.6602 21.675 92.9977 21.8583 92.3977 22.225C91.7977 22.5917 91.3227 23.0833 90.9727 23.7C90.6227 24.3167 90.4477 25 90.4477 25.75C90.4477 26.5083 90.6268 27.1958 90.9852 27.8125C91.3518 28.4208 91.831 28.9083 92.4227 29.275C93.0227 29.6333 93.6768 29.8125 94.3852 29.8125ZM111.273 28.45L113.598 29.7125C113.031 30.5042 112.31 31.1375 111.435 31.6125C110.569 32.0875 109.627 32.325 108.61 32.325C107.46 32.325 106.41 32.0292 105.46 31.4375C104.519 30.8458 103.765 30.0542 103.198 29.0625C102.64 28.0625 102.36 26.9583 102.36 25.75C102.36 24.8333 102.523 23.9792 102.848 23.1875C103.173 22.3875 103.619 21.6875 104.185 21.0875C104.76 20.4792 105.427 20.0042 106.185 19.6625C106.944 19.3208 107.752 19.15 108.61 19.15C109.627 19.15 110.569 19.3875 111.435 19.8625C112.31 20.3375 113.031 20.975 113.598 21.775L111.273 23.0375C110.923 22.6208 110.515 22.3042 110.048 22.0875C109.581 21.8625 109.102 21.75 108.61 21.75C107.927 21.75 107.306 21.9375 106.748 22.3125C106.198 22.6792 105.76 23.1667 105.435 23.775C105.119 24.375 104.96 25.0333 104.96 25.75C104.96 26.4583 105.123 27.1167 105.448 27.725C105.773 28.325 106.21 28.8083 106.76 29.175C107.319 29.5417 107.935 29.725 108.61 29.725C109.127 29.725 109.619 29.6083 110.085 29.375C110.552 29.1417 110.948 28.8333 111.273 28.45ZM121.037 32.325C119.887 32.325 118.837 32.0292 117.887 31.4375C116.945 30.8458 116.191 30.0542 115.625 29.0625C115.066 28.0625 114.787 26.9583 114.787 25.75C114.787 24.8333 114.95 23.9792 115.275 23.1875C115.6 22.3875 116.045 21.6875 116.612 21.0875C117.187 20.4792 117.854 20.0042 118.612 19.6625C119.37 19.3208 120.179 19.15 121.037 19.15C121.995 19.15 122.875 19.35 123.675 19.75C124.475 20.1417 125.158 20.6875 125.725 21.3875C126.291 22.0792 126.708 22.8792 126.975 23.7875C127.241 24.6875 127.32 25.6458 127.212 26.6625H117.575C117.683 27.2375 117.891 27.7583 118.2 28.225C118.516 28.6833 118.916 29.0458 119.4 29.3125C119.891 29.5792 120.437 29.7167 121.037 29.725C121.67 29.725 122.245 29.5667 122.762 29.25C123.287 28.9333 123.716 28.4958 124.05 27.9375L126.687 28.55C126.187 29.6583 125.433 30.5667 124.425 31.275C123.416 31.975 122.287 32.325 121.037 32.325ZM117.487 24.675H124.587C124.504 24.075 124.291 23.5333 123.95 23.05C123.616 22.5583 123.195 22.1708 122.687 21.8875C122.187 21.5958 121.637 21.45 121.037 21.45C120.445 21.45 119.895 21.5917 119.387 21.875C118.887 22.1583 118.47 22.5458 118.137 23.0375C117.812 23.5208 117.595 24.0667 117.487 24.675ZM129.002 32V29.6875C129.594 29.1958 130.273 28.625 131.039 27.975C131.806 27.3167 132.585 26.6208 133.377 25.8875C134.169 25.1458 134.898 24.4083 135.564 23.675C136.231 22.9333 136.769 22.2333 137.177 21.575C137.594 20.9083 137.802 20.3292 137.802 19.8375C137.802 19.2792 137.664 18.7708 137.389 18.3125C137.123 17.8458 136.76 17.475 136.302 17.2C135.844 16.9167 135.335 16.775 134.777 16.775C134.219 16.775 133.706 16.9167 133.239 17.2C132.781 17.475 132.41 17.8458 132.127 18.3125C131.852 18.7708 131.714 19.2792 131.714 19.8375H129.114C129.114 18.7792 129.373 17.825 129.889 16.975C130.414 16.1167 131.102 15.4375 131.952 14.9375C132.81 14.4292 133.752 14.175 134.777 14.175C135.81 14.175 136.752 14.4292 137.602 14.9375C138.452 15.4458 139.131 16.1292 139.639 16.9875C140.148 17.8375 140.402 18.7875 140.402 19.8375C140.402 20.4208 140.281 21.0208 140.039 21.6375C139.798 22.2542 139.46 22.8833 139.027 23.525C138.602 24.1667 138.106 24.8167 137.539 25.475C136.973 26.1333 136.364 26.7917 135.714 27.45C135.064 28.1083 134.402 28.7583 133.727 29.4H140.552V32H129.002ZM143.54 32V14.5H153.853V17.1H146.14V21.325H152.653V23.925H146.14V32H143.54ZM164.3 19.5H166.9V32H164.288L164.188 30.1875C163.821 30.8292 163.325 31.3458 162.7 31.7375C162.075 32.1292 161.338 32.325 160.488 32.325C159.571 32.325 158.709 32.1542 157.9 31.8125C157.092 31.4625 156.379 30.9792 155.763 30.3625C155.154 29.7458 154.679 29.0375 154.338 28.2375C153.996 27.4292 153.825 26.5625 153.825 25.6375C153.825 24.7458 153.992 23.9083 154.325 23.125C154.659 22.3333 155.121 21.6417 155.713 21.05C156.304 20.4583 156.988 19.9958 157.763 19.6625C158.546 19.3208 159.384 19.15 160.275 19.15C161.184 19.15 161.984 19.3583 162.675 19.775C163.375 20.1833 163.954 20.7083 164.413 21.35L164.3 19.5ZM160.425 29.8125C161.159 29.8125 161.8 29.6333 162.35 29.275C162.9 28.9083 163.325 28.4167 163.625 27.8C163.934 27.1833 164.088 26.5 164.088 25.75C164.088 24.9917 163.934 24.3042 163.625 23.6875C163.317 23.0708 162.888 22.5833 162.338 22.225C161.796 21.8583 161.159 21.675 160.425 21.675C159.7 21.675 159.038 21.8583 158.438 22.225C157.838 22.5917 157.363 23.0833 157.013 23.7C156.663 24.3167 156.488 25 156.488 25.75C156.488 26.5083 156.667 27.1958 157.025 27.8125C157.392 28.4208 157.871 28.9083 158.463 29.275C159.063 29.6333 159.717 29.8125 160.425 29.8125ZM177.313 28.45L179.638 29.7125C179.071 30.5042 178.35 31.1375 177.475 31.6125C176.609 32.0875 175.667 32.325 174.65 32.325C173.5 32.325 172.45 32.0292 171.5 31.4375C170.559 30.8458 169.805 30.0542 169.238 29.0625C168.68 28.0625 168.4 26.9583 168.4 25.75C168.4 24.8333 168.563 23.9792 168.888 23.1875C169.213 22.3875 169.659 21.6875 170.225 21.0875C170.8 20.4792 171.467 20.0042 172.225 19.6625C172.984 19.3208 173.792 19.15 174.65 19.15C175.667 19.15 176.609 19.3875 177.475 19.8625C178.35 20.3375 179.071 20.975 179.638 21.775L177.313 23.0375C176.963 22.6208 176.555 22.3042 176.088 22.0875C175.621 21.8625 175.142 21.75 174.65 21.75C173.967 21.75 173.346 21.9375 172.788 22.3125C172.238 22.6792 171.8 23.1667 171.475 23.775C171.159 24.375 171 25.0333 171 25.75C171 26.4583 171.163 27.1167 171.488 27.725C171.813 28.325 172.25 28.8083 172.8 29.175C173.359 29.5417 173.975 29.725 174.65 29.725C175.167 29.725 175.659 29.6083 176.125 29.375C176.592 29.1417 176.988 28.8333 177.313 28.45ZM187.077 32.325C185.927 32.325 184.877 32.0292 183.927 31.4375C182.985 30.8458 182.231 30.0542 181.665 29.0625C181.106 28.0625 180.827 26.9583 180.827 25.75C180.827 24.8333 180.99 23.9792 181.315 23.1875C181.64 22.3875 182.085 21.6875 182.652 21.0875C183.227 20.4792 183.894 20.0042 184.652 19.6625C185.41 19.3208 186.219 19.15 187.077 19.15C188.035 19.15 188.915 19.35 189.715 19.75C190.515 20.1417 191.198 20.6875 191.765 21.3875C192.331 22.0792 192.748 22.8792 193.015 23.7875C193.281 24.6875 193.36 25.6458 193.252 26.6625H183.615C183.723 27.2375 183.931 27.7583 184.24 28.225C184.556 28.6833 184.956 29.0458 185.44 29.3125C185.931 29.5792 186.477 29.7167 187.077 29.725C187.71 29.725 188.285 29.5667 188.802 29.25C189.327 28.9333 189.756 28.4958 190.09 27.9375L192.727 28.55C192.227 29.6583 191.473 30.5667 190.465 31.275C189.456 31.975 188.327 32.325 187.077 32.325ZM183.527 24.675H190.627C190.544 24.075 190.331 23.5333 189.99 23.05C189.656 22.5583 189.235 22.1708 188.727 21.8875C188.227 21.5958 187.677 21.45 187.077 21.45C186.485 21.45 185.935 21.5917 185.427 21.875C184.927 22.1583 184.51 22.5458 184.177 23.0375C183.852 23.5208 183.635 24.0667 183.527 24.675ZM207.785 32.325C206.827 32.325 205.906 32.175 205.023 31.875C204.14 31.575 203.369 31.1458 202.71 30.5875C202.052 30.0208 201.581 29.35 201.298 28.575L203.735 27.6625C203.877 28.0625 204.148 28.4208 204.548 28.7375C204.956 29.0458 205.44 29.2875 205.998 29.4625C206.565 29.6375 207.16 29.725 207.785 29.725C208.452 29.725 209.077 29.6167 209.66 29.4C210.252 29.1833 210.727 28.8833 211.085 28.5C211.452 28.1167 211.635 27.6667 211.635 27.15C211.635 26.6167 211.444 26.1792 211.06 25.8375C210.685 25.4958 210.202 25.225 209.61 25.025C209.027 24.825 208.419 24.675 207.785 24.575C206.56 24.375 205.46 24.0833 204.485 23.7C203.519 23.3167 202.752 22.7792 202.185 22.0875C201.627 21.3958 201.348 20.4958 201.348 19.3875C201.348 18.3458 201.644 17.4375 202.235 16.6625C202.835 15.8875 203.623 15.2875 204.598 14.8625C205.581 14.4292 206.644 14.2125 207.785 14.2125C208.727 14.2125 209.635 14.3625 210.51 14.6625C211.394 14.9542 212.169 15.3833 212.835 15.95C213.51 16.5083 213.994 17.1875 214.285 17.9875L211.823 18.875C211.681 18.4667 211.41 18.1125 211.01 17.8125C210.61 17.5042 210.127 17.2625 209.56 17.0875C209.002 16.9125 208.41 16.825 207.785 16.825C207.119 16.8167 206.494 16.925 205.91 17.15C205.335 17.3667 204.865 17.6667 204.498 18.05C204.131 18.4333 203.948 18.8792 203.948 19.3875C203.948 20.0125 204.119 20.4875 204.46 20.8125C204.802 21.1375 205.26 21.3792 205.835 21.5375C206.419 21.6875 207.069 21.825 207.785 21.95C208.935 22.1333 209.998 22.4375 210.973 22.8625C211.956 23.2875 212.744 23.8542 213.335 24.5625C213.935 25.2625 214.235 26.125 214.235 27.15C214.235 28.1833 213.935 29.0917 213.335 29.875C212.744 30.65 211.956 31.2542 210.973 31.6875C209.998 32.1125 208.935 32.325 207.785 32.325ZM224.871 28.45L227.196 29.7125C226.63 30.5042 225.909 31.1375 225.034 31.6125C224.167 32.0875 223.226 32.325 222.209 32.325C221.059 32.325 220.009 32.0292 219.059 31.4375C218.117 30.8458 217.363 30.0542 216.796 29.0625C216.238 28.0625 215.959 26.9583 215.959 25.75C215.959 24.8333 216.121 23.9792 216.446 23.1875C216.771 22.3875 217.217 21.6875 217.784 21.0875C218.359 20.4792 219.026 20.0042 219.784 19.6625C220.542 19.3208 221.351 19.15 222.209 19.15C223.226 19.15 224.167 19.3875 225.034 19.8625C225.909 20.3375 226.63 20.975 227.196 21.775L224.871 23.0375C224.521 22.6208 224.113 22.3042 223.646 22.0875C223.18 21.8625 222.701 21.75 222.209 21.75C221.526 21.75 220.905 21.9375 220.346 22.3125C219.796 22.6792 219.359 23.1667 219.034 23.775C218.717 24.375 218.559 25.0333 218.559 25.75C218.559 26.4583 218.721 27.1167 219.046 27.725C219.371 28.325 219.809 28.8083 220.359 29.175C220.917 29.5417 221.534 29.725 222.209 29.725C222.726 29.725 223.217 29.6083 223.684 29.375C224.151 29.1417 224.546 28.8333 224.871 28.45ZM238.861 19.5H241.461V32H238.848L238.748 30.1875C238.382 30.8292 237.886 31.3458 237.261 31.7375C236.636 32.1292 235.898 32.325 235.048 32.325C234.132 32.325 233.269 32.1542 232.461 31.8125C231.652 31.4625 230.94 30.9792 230.323 30.3625C229.715 29.7458 229.24 29.0375 228.898 28.2375C228.557 27.4292 228.386 26.5625 228.386 25.6375C228.386 24.7458 228.552 23.9083 228.886 23.125C229.219 22.3333 229.682 21.6417 230.273 21.05C230.865 20.4583 231.548 19.9958 232.323 19.6625C233.107 19.3208 233.944 19.15 234.836 19.15C235.744 19.15 236.544 19.3583 237.236 19.775C237.936 20.1833 238.515 20.7083 238.973 21.35L238.861 19.5ZM234.986 29.8125C235.719 29.8125 236.361 29.6333 236.911 29.275C237.461 28.9083 237.886 28.4167 238.186 27.8C238.494 27.1833 238.648 26.5 238.648 25.75C238.648 24.9917 238.494 24.3042 238.186 23.6875C237.877 23.0708 237.448 22.5833 236.898 22.225C236.357 21.8583 235.719 21.675 234.986 21.675C234.261 21.675 233.598 21.8583 232.998 22.225C232.398 22.5917 231.923 23.0833 231.573 23.7C231.223 24.3167 231.048 25 231.048 25.75C231.048 26.5083 231.227 27.1958 231.586 27.8125C231.952 28.4208 232.432 28.9083 233.023 29.275C233.623 29.6333 234.277 29.8125 234.986 29.8125ZM247.168 16.6625V19.5H250.693V22.1H247.168V32H244.568V22.1H243.08V19.5H244.568V16.6625C244.568 15.9792 244.734 15.3583 245.068 14.8C245.401 14.2333 245.847 13.7833 246.405 13.45C246.972 13.1167 247.601 12.95 248.293 12.95C248.793 12.95 249.28 13.05 249.755 13.25C250.23 13.45 250.655 13.7583 251.03 14.175L249.168 16.0125C249.076 15.8625 248.947 15.75 248.78 15.675C248.622 15.5917 248.459 15.55 248.293 15.55C247.984 15.55 247.718 15.6583 247.493 15.875C247.276 16.0917 247.168 16.3542 247.168 16.6625ZM256.201 16.6625V19.5H259.726V22.1H256.201V32H253.601V22.1H252.113V19.5H253.601V16.6625C253.601 15.9792 253.767 15.3583 254.101 14.8C254.434 14.2333 254.88 13.7833 255.438 13.45C256.005 13.1167 256.634 12.95 257.326 12.95C257.826 12.95 258.313 13.05 258.788 13.25C259.263 13.45 259.688 13.7583 260.063 14.175L258.201 16.0125C258.109 15.8625 257.98 15.75 257.813 15.675C257.655 15.5917 257.492 15.55 257.326 15.55C257.017 15.55 256.751 15.6583 256.526 15.875C256.309 16.0917 256.201 16.3542 256.201 16.6625ZM266.984 32.325C265.834 32.325 264.784 32.0292 263.834 31.4375C262.893 30.8458 262.139 30.0542 261.572 29.0625C261.014 28.0625 260.734 26.9583 260.734 25.75C260.734 24.8333 260.897 23.9792 261.222 23.1875C261.547 22.3875 261.993 21.6875 262.559 21.0875C263.134 20.4792 263.801 20.0042 264.559 19.6625C265.318 19.3208 266.126 19.15 266.984 19.15C268.134 19.15 269.18 19.4458 270.122 20.0375C271.072 20.6292 271.826 21.425 272.384 22.425C272.951 23.425 273.234 24.5333 273.234 25.75C273.234 26.6583 273.072 27.5083 272.747 28.3C272.422 29.0917 271.972 29.7917 271.397 30.4C270.83 31 270.168 31.4708 269.409 31.8125C268.659 32.1542 267.851 32.325 266.984 32.325ZM266.984 29.725C267.676 29.725 268.297 29.5417 268.847 29.175C269.397 28.8083 269.83 28.325 270.147 27.725C270.472 27.1167 270.634 26.4583 270.634 25.75C270.634 25.025 270.468 24.3583 270.134 23.75C269.809 23.1417 269.372 22.6583 268.822 22.3C268.272 21.9333 267.659 21.75 266.984 21.75C266.301 21.75 265.68 21.9333 265.122 22.3C264.572 22.6667 264.134 23.1542 263.809 23.7625C263.493 24.3708 263.334 25.0333 263.334 25.75C263.334 26.4917 263.501 27.1625 263.834 27.7625C264.168 28.3625 264.609 28.8417 265.159 29.2C265.718 29.55 266.326 29.725 266.984 29.725ZM275.083 32V13.25H277.683V32H275.083ZM290.24 13.25H292.84V32H290.24V30.1625C289.832 30.8125 289.299 31.3375 288.64 31.7375C287.982 32.1292 287.211 32.325 286.328 32.325C285.42 32.325 284.57 32.1542 283.778 31.8125C282.986 31.4708 282.286 31 281.678 30.4C281.078 29.7917 280.607 29.0917 280.265 28.3C279.924 27.5083 279.753 26.6583 279.753 25.75C279.753 24.8417 279.924 23.9917 280.265 23.2C280.607 22.4 281.078 21.7 281.678 21.1C282.286 20.4917 282.986 20.0167 283.778 19.675C284.57 19.3333 285.42 19.1625 286.328 19.1625C287.211 19.1625 287.982 19.3625 288.64 19.7625C289.299 20.1542 289.832 20.6708 290.24 21.3125V13.25ZM286.353 29.8125C287.086 29.8125 287.728 29.6333 288.278 29.275C288.828 28.9083 289.253 28.4167 289.553 27.8C289.861 27.1833 290.015 26.5 290.015 25.75C290.015 24.9917 289.861 24.3042 289.553 23.6875C289.245 23.0708 288.815 22.5833 288.265 22.225C287.724 21.8583 287.086 21.675 286.353 21.675C285.628 21.675 284.965 21.8583 284.365 22.225C283.774 22.5917 283.299 23.0833 282.94 23.7C282.59 24.3167 282.415 25 282.415 25.75C282.415 26.5083 282.595 27.1958 282.953 27.8125C283.32 28.4208 283.799 28.9083 284.39 29.275C284.99 29.6333 285.645 29.8125 286.353 29.8125ZM295.835 19.5H298.435V32H295.835V19.5ZM297.16 17.6875C296.76 17.6875 296.427 17.5583 296.16 17.3C295.893 17.0417 295.76 16.7167 295.76 16.325C295.76 15.9417 295.893 15.6208 296.16 15.3625C296.427 15.0958 296.756 14.9625 297.147 14.9625C297.531 14.9625 297.856 15.0958 298.122 15.3625C298.389 15.6208 298.522 15.9417 298.522 16.325C298.522 16.7167 298.389 17.0417 298.122 17.3C297.864 17.5583 297.543 17.6875 297.16 17.6875ZM312.578 24.1625V32H309.978V24.8C309.978 24.2417 309.841 23.7333 309.566 23.275C309.299 22.8167 308.936 22.4542 308.478 22.1875C308.028 21.9125 307.52 21.775 306.953 21.775C306.403 21.775 305.899 21.9125 305.441 22.1875C304.982 22.4542 304.616 22.8167 304.341 23.275C304.066 23.7333 303.928 24.2417 303.928 24.8V32H301.328V19.5H303.928V20.825C304.361 20.3083 304.895 19.9 305.528 19.6C306.161 19.3 306.845 19.15 307.578 19.15C308.503 19.15 309.345 19.375 310.103 19.825C310.861 20.275 311.461 20.8792 311.903 21.6375C312.353 22.3958 312.578 23.2375 312.578 24.1625ZM324.342 19.5H326.942V32.325C326.942 33.1833 326.758 33.975 326.392 34.7C326.033 35.425 325.546 36.05 324.929 36.575C324.312 37.1083 323.604 37.5208 322.804 37.8125C322.012 38.1042 321.183 38.25 320.317 38.25C319.442 38.25 318.6 38.0625 317.792 37.6875C316.983 37.3208 316.271 36.8208 315.654 36.1875C315.046 35.5542 314.592 34.8375 314.292 34.0375L316.679 32.9625C316.846 33.4792 317.112 33.9375 317.479 34.3375C317.854 34.7375 318.287 35.0542 318.779 35.2875C319.279 35.5208 319.792 35.6375 320.317 35.6375C320.833 35.6375 321.329 35.5542 321.804 35.3875C322.287 35.2292 322.717 35.0042 323.092 34.7125C323.475 34.4208 323.779 34.0708 324.004 33.6625C324.229 33.2542 324.342 32.8083 324.342 32.325V30.2125C323.933 30.8458 323.408 31.3583 322.767 31.75C322.125 32.1333 321.379 32.325 320.529 32.325C319.646 32.325 318.812 32.1542 318.029 31.8125C317.246 31.4708 316.558 31 315.967 30.4C315.375 29.7917 314.912 29.0917 314.579 28.3C314.246 27.5083 314.079 26.6583 314.079 25.75C314.079 24.8417 314.246 23.9917 314.579 23.2C314.912 22.4 315.375 21.7 315.967 21.1C316.558 20.4917 317.246 20.0167 318.029 19.675C318.812 19.3333 319.646 19.1625 320.529 19.1625C321.379 19.1625 322.125 19.3583 322.767 19.75C323.408 20.1333 323.933 20.6458 324.342 21.2875V19.5ZM320.554 29.8125C321.279 29.8125 321.912 29.6292 322.454 29.2625C322.996 28.8875 323.417 28.3917 323.717 27.775C324.017 27.1583 324.167 26.4833 324.167 25.75C324.167 25 324.012 24.3208 323.704 23.7125C323.404 23.0958 322.983 22.6042 322.442 22.2375C321.9 21.8625 321.271 21.675 320.554 21.675C319.854 21.675 319.212 21.8583 318.629 22.225C318.054 22.5917 317.596 23.0833 317.254 23.7C316.912 24.3167 316.742 25 316.742 25.75C316.742 26.5 316.912 27.1833 317.254 27.8C317.604 28.4167 318.067 28.9083 318.642 29.275C319.225 29.6333 319.862 29.8125 320.554 29.8125Z" fill="white"/>
</svg>
