<svg width="417" height="50" viewBox="0 0 417 50" fill="none" xmlns="http://www.w3.org/2000/svg">
<path d="M77.2241 39.0049V15.9049H90.8366V19.3369H80.6561V24.9139H89.2526V28.3459H80.6561V39.0049H77.2241ZM104.628 22.5049H108.06V39.0049H104.611L104.479 36.6124C103.995 37.4594 103.341 38.1414 102.516 38.6584C101.691 39.1754 100.717 39.4339 99.595 39.4339C98.385 39.4339 97.2465 39.2084 96.1795 38.7574C95.1125 38.2954 94.172 37.6574 93.358 36.8434C92.555 36.0294 91.928 35.0944 91.477 34.0384C91.026 32.9714 90.8005 31.8274 90.8005 30.6064C90.8005 29.4294 91.0205 28.3239 91.4605 27.2899C91.9005 26.2449 92.511 25.3319 93.292 24.5509C94.073 23.7699 94.975 23.1594 95.998 22.7194C97.032 22.2684 98.1375 22.0429 99.3145 22.0429C100.514 22.0429 101.57 22.3179 102.483 22.8679C103.407 23.4069 104.171 24.0999 104.776 24.9469L104.628 22.5049ZM99.5125 36.1174C100.481 36.1174 101.328 35.8809 102.054 35.4079C102.78 34.9239 103.341 34.2749 103.737 33.4609C104.144 32.6469 104.347 31.7449 104.347 30.7549C104.347 29.7539 104.144 28.8464 103.737 28.0324C103.33 27.2184 102.763 26.5749 102.037 26.1019C101.322 25.6179 100.481 25.3759 99.5125 25.3759C98.5555 25.3759 97.681 25.6179 96.889 26.1019C96.097 26.5859 95.47 27.2349 95.008 28.0489C94.546 28.8629 94.315 29.7649 94.315 30.7549C94.315 31.7559 94.5515 32.6634 95.0245 33.4774C95.5085 34.2804 96.141 34.9239 96.922 35.4079C97.714 35.8809 98.5775 36.1174 99.5125 36.1174ZM121.804 34.3189L124.873 35.9854C124.125 37.0304 123.174 37.8664 122.019 38.4934C120.875 39.1204 119.632 39.4339 118.29 39.4339C116.772 39.4339 115.386 39.0434 114.132 38.2624C112.889 37.4814 111.893 36.4364 111.145 35.1274C110.408 33.8074 110.04 32.3499 110.04 30.7549C110.04 29.5449 110.254 28.4174 110.683 27.3724C111.112 26.3164 111.701 25.3924 112.449 24.6004C113.208 23.7974 114.088 23.1704 115.089 22.7194C116.09 22.2684 117.157 22.0429 118.29 22.0429C119.632 22.0429 120.875 22.3564 122.019 22.9834C123.174 23.6104 124.125 24.4519 124.873 25.5079L121.804 27.1744C121.342 26.6244 120.803 26.2064 120.187 25.9204C119.571 25.6234 118.939 25.4749 118.29 25.4749C117.388 25.4749 116.568 25.7224 115.831 26.2174C115.105 26.7014 114.528 27.3449 114.099 28.1479C113.681 28.9399 113.472 29.8089 113.472 30.7549C113.472 31.6899 113.686 32.5589 114.115 33.3619C114.544 34.1539 115.122 34.7919 115.848 35.2759C116.585 35.7599 117.399 36.0019 118.29 36.0019C118.972 36.0019 119.621 35.8479 120.237 35.5399C120.853 35.2319 121.375 34.8249 121.804 34.3189ZM134.693 39.4339C133.175 39.4339 131.789 39.0434 130.535 38.2624C129.292 37.4814 128.297 36.4364 127.549 35.1274C126.812 33.8074 126.443 32.3499 126.443 30.7549C126.443 29.5449 126.658 28.4174 127.087 27.3724C127.516 26.3164 128.104 25.3924 128.852 24.6004C129.611 23.7974 130.491 23.1704 131.492 22.7194C132.493 22.2684 133.56 22.0429 134.693 22.0429C135.958 22.0429 137.119 22.3069 138.175 22.8349C139.231 23.3519 140.133 24.0724 140.881 24.9964C141.629 25.9094 142.179 26.9654 142.531 28.1644C142.883 29.3524 142.987 30.6174 142.844 31.9594H130.123C130.266 32.7184 130.541 33.4059 130.948 34.0219C131.366 34.6269 131.894 35.1054 132.532 35.4574C133.181 35.8094 133.901 35.9909 134.693 36.0019C135.529 36.0019 136.288 35.7929 136.97 35.3749C137.663 34.9569 138.23 34.3794 138.67 33.6424L142.151 34.4509C141.491 35.9139 140.496 37.1129 139.165 38.0479C137.834 38.9719 136.343 39.4339 134.693 39.4339ZM130.007 29.3359H139.379C139.269 28.5439 138.989 27.8289 138.538 27.1909C138.098 26.5419 137.542 26.0304 136.871 25.6564C136.211 25.2714 135.485 25.0789 134.693 25.0789C133.912 25.0789 133.186 25.2659 132.515 25.6399C131.855 26.0139 131.305 26.5254 130.865 27.1744C130.436 27.8124 130.15 28.5329 130.007 29.3359ZM145.207 39.0049V35.9524C145.988 35.3034 146.884 34.5499 147.896 33.6919C148.908 32.8229 149.937 31.9044 150.982 30.9364C152.027 29.9574 152.989 28.9839 153.869 28.0159C154.749 27.0369 155.459 26.1129 155.998 25.2439C156.548 24.3639 156.823 23.5994 156.823 22.9504C156.823 22.2134 156.641 21.5424 156.278 20.9374C155.926 20.3214 155.448 19.8319 154.843 19.4689C154.238 19.0949 153.567 18.9079 152.83 18.9079C152.093 18.9079 151.416 19.0949 150.8 19.4689C150.195 19.8319 149.706 20.3214 149.332 20.9374C148.969 21.5424 148.787 22.2134 148.787 22.9504H145.355C145.355 21.5534 145.696 20.2939 146.378 19.1719C147.071 18.0389 147.979 17.1424 149.101 16.4824C150.234 15.8114 151.477 15.4759 152.83 15.4759C154.194 15.4759 155.437 15.8114 156.559 16.4824C157.681 17.1534 158.577 18.0554 159.248 19.1884C159.919 20.3104 160.255 21.5644 160.255 22.9504C160.255 23.7204 160.095 24.5124 159.776 25.3264C159.457 26.1404 159.012 26.9709 158.44 27.8179C157.879 28.6649 157.224 29.5229 156.476 30.3919C155.728 31.2609 154.925 32.1299 154.067 32.9989C153.209 33.8679 152.335 34.7259 151.444 35.5729H160.453V39.0049H145.207ZM164.397 39.0049V15.9049H178.009V19.3369H167.829V24.9139H176.425V28.3459H167.829V39.0049H164.397ZM191.8 22.5049H195.232V39.0049H191.784L191.652 36.6124C191.168 37.4594 190.513 38.1414 189.688 38.6584C188.863 39.1754 187.89 39.4339 186.768 39.4339C185.558 39.4339 184.419 39.2084 183.352 38.7574C182.285 38.2954 181.345 37.6574 180.531 36.8434C179.728 36.0294 179.101 35.0944 178.65 34.0384C178.199 32.9714 177.973 31.8274 177.973 30.6064C177.973 29.4294 178.193 28.3239 178.633 27.2899C179.073 26.2449 179.684 25.3319 180.465 24.5509C181.246 23.7699 182.148 23.1594 183.171 22.7194C184.205 22.2684 185.31 22.0429 186.487 22.0429C187.686 22.0429 188.742 22.3179 189.655 22.8679C190.579 23.4069 191.344 24.0999 191.949 24.9469L191.8 22.5049ZM186.685 36.1174C187.653 36.1174 188.5 35.8809 189.226 35.4079C189.952 34.9239 190.513 34.2749 190.909 33.4609C191.316 32.6469 191.52 31.7449 191.52 30.7549C191.52 29.7539 191.316 28.8464 190.909 28.0324C190.502 27.2184 189.936 26.5749 189.21 26.1019C188.495 25.6179 187.653 25.3759 186.685 25.3759C185.728 25.3759 184.854 25.6179 184.062 26.1019C183.27 26.5859 182.643 27.2349 182.181 28.0489C181.719 28.8629 181.488 29.7649 181.488 30.7549C181.488 31.7559 181.724 32.6634 182.197 33.4774C182.681 34.2804 183.314 34.9239 184.095 35.4079C184.887 35.8809 185.75 36.1174 186.685 36.1174ZM208.977 34.3189L212.046 35.9854C211.298 37.0304 210.347 37.8664 209.192 38.4934C208.048 39.1204 206.805 39.4339 205.463 39.4339C203.945 39.4339 202.559 39.0434 201.305 38.2624C200.062 37.4814 199.066 36.4364 198.318 35.1274C197.581 33.8074 197.213 32.3499 197.213 30.7549C197.213 29.5449 197.427 28.4174 197.856 27.3724C198.285 26.3164 198.874 25.3924 199.622 24.6004C200.381 23.7974 201.261 23.1704 202.262 22.7194C203.263 22.2684 204.33 22.0429 205.463 22.0429C206.805 22.0429 208.048 22.3564 209.192 22.9834C210.347 23.6104 211.298 24.4519 212.046 25.5079L208.977 27.1744C208.515 26.6244 207.976 26.2064 207.36 25.9204C206.744 25.6234 206.112 25.4749 205.463 25.4749C204.561 25.4749 203.741 25.7224 203.004 26.2174C202.278 26.7014 201.701 27.3449 201.272 28.1479C200.854 28.9399 200.645 29.8089 200.645 30.7549C200.645 31.6899 200.859 32.5589 201.288 33.3619C201.717 34.1539 202.295 34.7919 203.021 35.2759C203.758 35.7599 204.572 36.0019 205.463 36.0019C206.145 36.0019 206.794 35.8479 207.41 35.5399C208.026 35.2319 208.548 34.8249 208.977 34.3189ZM221.866 39.4339C220.348 39.4339 218.962 39.0434 217.708 38.2624C216.465 37.4814 215.469 36.4364 214.721 35.1274C213.984 33.8074 213.616 32.3499 213.616 30.7549C213.616 29.5449 213.83 28.4174 214.259 27.3724C214.688 26.3164 215.277 25.3924 216.025 24.6004C216.784 23.7974 217.664 23.1704 218.665 22.7194C219.666 22.2684 220.733 22.0429 221.866 22.0429C223.131 22.0429 224.291 22.3069 225.347 22.8349C226.403 23.3519 227.305 24.0724 228.053 24.9964C228.801 25.9094 229.351 26.9654 229.703 28.1644C230.055 29.3524 230.16 30.6174 230.017 31.9594H217.295C217.438 32.7184 217.713 33.4059 218.12 34.0219C218.538 34.6269 219.066 35.1054 219.704 35.4574C220.353 35.8094 221.074 35.9909 221.866 36.0019C222.702 36.0019 223.461 35.7929 224.143 35.3749C224.836 34.9569 225.402 34.3794 225.842 33.6424L229.324 34.4509C228.664 35.9139 227.668 37.1129 226.337 38.0479C225.006 38.9719 223.516 39.4339 221.866 39.4339ZM217.18 29.3359H226.552C226.442 28.5439 226.161 27.8289 225.71 27.1909C225.27 26.5419 224.715 26.0304 224.044 25.6564C223.384 25.2714 222.658 25.0789 221.866 25.0789C221.085 25.0789 220.359 25.2659 219.688 25.6399C219.028 26.0139 218.478 26.5254 218.038 27.1744C217.609 27.8124 217.323 28.5329 217.18 29.3359ZM249.201 39.4339C247.936 39.4339 246.72 39.2359 245.554 38.8399C244.388 38.4439 243.371 37.8774 242.502 37.1404C241.633 36.3924 241.011 35.5069 240.637 34.4839L243.855 33.2794C244.042 33.8074 244.399 34.2804 244.927 34.6984C245.466 35.1054 246.104 35.4244 246.841 35.6554C247.589 35.8864 248.376 36.0019 249.201 36.0019C250.081 36.0019 250.906 35.8589 251.676 35.5729C252.457 35.2869 253.084 34.8909 253.557 34.3849C254.041 33.8789 254.283 33.2849 254.283 32.6029C254.283 31.8989 254.03 31.3214 253.524 30.8704C253.029 30.4194 252.391 30.0619 251.61 29.7979C250.84 29.5339 250.037 29.3359 249.201 29.2039C247.584 28.9399 246.132 28.5549 244.845 28.0489C243.569 27.5429 242.557 26.8334 241.809 25.9204C241.072 25.0074 240.703 23.8194 240.703 22.3564C240.703 20.9814 241.094 19.7824 241.875 18.7594C242.667 17.7364 243.706 16.9444 244.993 16.3834C246.291 15.8114 247.694 15.5254 249.201 15.5254C250.444 15.5254 251.643 15.7234 252.798 16.1194C253.964 16.5044 254.987 17.0709 255.867 17.8189C256.758 18.5559 257.396 19.4524 257.781 20.5084L254.53 21.6799C254.343 21.1409 253.986 20.6734 253.458 20.2774C252.93 19.8704 252.292 19.5514 251.544 19.3204C250.807 19.0894 250.026 18.9739 249.201 18.9739C248.321 18.9629 247.496 19.1059 246.726 19.4029C245.967 19.6889 245.345 20.0849 244.861 20.5909C244.377 21.0969 244.135 21.6854 244.135 22.3564C244.135 23.1814 244.361 23.8084 244.812 24.2374C245.263 24.6664 245.868 24.9854 246.627 25.1944C247.397 25.3924 248.255 25.5739 249.201 25.7389C250.719 25.9809 252.121 26.3824 253.408 26.9434C254.706 27.5044 255.746 28.2524 256.527 29.1874C257.319 30.1114 257.715 31.2499 257.715 32.6029C257.715 33.9669 257.319 35.1659 256.527 36.1999C255.746 37.2229 254.706 38.0204 253.408 38.5924C252.121 39.1534 250.719 39.4339 249.201 39.4339ZM271.755 34.3189L274.824 35.9854C274.076 37.0304 273.124 37.8664 271.969 38.4934C270.825 39.1204 269.582 39.4339 268.24 39.4339C266.722 39.4339 265.336 39.0434 264.082 38.2624C262.839 37.4814 261.844 36.4364 261.096 35.1274C260.359 33.8074 259.99 32.3499 259.99 30.7549C259.99 29.5449 260.205 28.4174 260.634 27.3724C261.063 26.3164 261.651 25.3924 262.399 24.6004C263.158 23.7974 264.038 23.1704 265.039 22.7194C266.04 22.2684 267.107 22.0429 268.24 22.0429C269.582 22.0429 270.825 22.3564 271.969 22.9834C273.124 23.6104 274.076 24.4519 274.824 25.5079L271.755 27.1744C271.293 26.6244 270.754 26.2064 270.138 25.9204C269.522 25.6234 268.889 25.4749 268.24 25.4749C267.338 25.4749 266.519 25.7224 265.782 26.2174C265.056 26.7014 264.478 27.3449 264.049 28.1479C263.631 28.9399 263.422 29.8089 263.422 30.7549C263.422 31.6899 263.637 32.5589 264.066 33.3619C264.495 34.1539 265.072 34.7919 265.798 35.2759C266.535 35.7599 267.349 36.0019 268.24 36.0019C268.922 36.0019 269.571 35.8479 270.187 35.5399C270.803 35.2319 271.326 34.8249 271.755 34.3189ZM290.22 22.5049H293.652V39.0049H290.204L290.072 36.6124C289.588 37.4594 288.933 38.1414 288.108 38.6584C287.283 39.1754 286.31 39.4339 285.188 39.4339C283.978 39.4339 282.839 39.2084 281.772 38.7574C280.705 38.2954 279.765 37.6574 278.951 36.8434C278.148 36.0294 277.521 35.0944 277.07 34.0384C276.619 32.9714 276.393 31.8274 276.393 30.6064C276.393 29.4294 276.613 28.3239 277.053 27.2899C277.493 26.2449 278.104 25.3319 278.885 24.5509C279.666 23.7699 280.568 23.1594 281.591 22.7194C282.625 22.2684 283.73 22.0429 284.907 22.0429C286.106 22.0429 287.162 22.3179 288.075 22.8679C288.999 23.4069 289.764 24.0999 290.369 24.9469L290.22 22.5049ZM285.105 36.1174C286.073 36.1174 286.92 35.8809 287.646 35.4079C288.372 34.9239 288.933 34.2749 289.329 33.4609C289.736 32.6469 289.94 31.7449 289.94 30.7549C289.94 29.7539 289.736 28.8464 289.329 28.0324C288.922 27.2184 288.356 26.5749 287.63 26.1019C286.915 25.6179 286.073 25.3759 285.105 25.3759C284.148 25.3759 283.274 25.6179 282.482 26.1019C281.69 26.5859 281.063 27.2349 280.601 28.0489C280.139 28.8629 279.908 29.7649 279.908 30.7549C279.908 31.7559 280.144 32.6634 280.617 33.4774C281.101 34.2804 281.734 34.9239 282.515 35.4079C283.307 35.8809 284.17 36.1174 285.105 36.1174ZM301.185 18.7594V22.5049H305.838V25.9369H301.185V39.0049H297.753V25.9369H295.79V22.5049H297.753V18.7594C297.753 17.8574 297.973 17.0379 298.413 16.3009C298.853 15.5529 299.442 14.9589 300.179 14.5189C300.927 14.0789 301.757 13.8589 302.67 13.8589C303.33 13.8589 303.974 13.9909 304.601 14.2549C305.228 14.5189 305.789 14.9259 306.284 15.4759L303.825 17.9014C303.704 17.7034 303.534 17.5549 303.314 17.4559C303.105 17.3459 302.89 17.2909 302.67 17.2909C302.263 17.2909 301.911 17.4339 301.614 17.7199C301.328 18.0059 301.185 18.3524 301.185 18.7594ZM313.109 18.7594V22.5049H317.762V25.9369H313.109V39.0049H309.677V25.9369H307.714V22.5049H309.677V18.7594C309.677 17.8574 309.897 17.0379 310.337 16.3009C310.777 15.5529 311.366 14.9589 312.103 14.5189C312.851 14.0789 313.681 13.8589 314.594 13.8589C315.254 13.8589 315.898 13.9909 316.525 14.2549C317.152 14.5189 317.713 14.9259 318.208 15.4759L315.749 17.9014C315.628 17.7034 315.458 17.5549 315.238 17.4559C315.029 17.3459 314.814 17.2909 314.594 17.2909C314.187 17.2909 313.835 17.4339 313.538 17.7199C313.252 18.0059 313.109 18.3524 313.109 18.7594ZM327.344 39.4339C325.826 39.4339 324.44 39.0434 323.186 38.2624C321.943 37.4814 320.947 36.4364 320.199 35.1274C319.462 33.8074 319.094 32.3499 319.094 30.7549C319.094 29.5449 319.308 28.4174 319.737 27.3724C320.166 26.3164 320.755 25.3924 321.503 24.6004C322.262 23.7974 323.142 23.1704 324.143 22.7194C325.144 22.2684 326.211 22.0429 327.344 22.0429C328.862 22.0429 330.242 22.4334 331.485 23.2144C332.739 23.9954 333.735 25.0459 334.472 26.3659C335.22 27.6859 335.594 29.1489 335.594 30.7549C335.594 31.9539 335.379 33.0759 334.95 34.1209C334.521 35.1659 333.927 36.0899 333.168 36.8929C332.42 37.6849 331.546 38.3064 330.545 38.7574C329.555 39.2084 328.488 39.4339 327.344 39.4339ZM327.344 36.0019C328.257 36.0019 329.076 35.7599 329.802 35.2759C330.528 34.7919 331.1 34.1539 331.518 33.3619C331.947 32.5589 332.162 31.6899 332.162 30.7549C332.162 29.7979 331.942 28.9179 331.502 28.1149C331.073 27.3119 330.495 26.6739 329.769 26.2009C329.043 25.7169 328.235 25.4749 327.344 25.4749C326.442 25.4749 325.622 25.7169 324.885 26.2009C324.159 26.6849 323.582 27.3284 323.153 28.1314C322.735 28.9344 322.526 29.8089 322.526 30.7549C322.526 31.7339 322.746 32.6194 323.186 33.4114C323.626 34.2034 324.209 34.8359 324.935 35.3089C325.672 35.7709 326.475 36.0019 327.344 36.0019ZM338.034 39.0049V14.2549H341.466V39.0049H338.034ZM358.042 14.2549H361.474V39.0049H358.042V36.5794C357.503 37.4374 356.799 38.1304 355.93 38.6584C355.061 39.1754 354.043 39.4339 352.877 39.4339C351.678 39.4339 350.556 39.2084 349.511 38.7574C348.466 38.3064 347.542 37.6849 346.739 36.8929C345.947 36.0899 345.326 35.1659 344.875 34.1209C344.424 33.0759 344.198 31.9539 344.198 30.7549C344.198 29.5559 344.424 28.4339 344.875 27.3889C345.326 26.3329 345.947 25.4089 346.739 24.6169C347.542 23.8139 348.466 23.1869 349.511 22.7359C350.556 22.2849 351.678 22.0594 352.877 22.0594C354.043 22.0594 355.061 22.3234 355.93 22.8514C356.799 23.3684 357.503 24.0504 358.042 24.8974V14.2549ZM352.91 36.1174C353.878 36.1174 354.725 35.8809 355.451 35.4079C356.177 34.9239 356.738 34.2749 357.134 33.4609C357.541 32.6469 357.745 31.7449 357.745 30.7549C357.745 29.7539 357.541 28.8464 357.134 28.0324C356.727 27.2184 356.161 26.5749 355.435 26.1019C354.72 25.6179 353.878 25.3759 352.91 25.3759C351.953 25.3759 351.079 25.6179 350.287 26.1019C349.506 26.5859 348.879 27.2349 348.406 28.0489C347.944 28.8629 347.713 29.7649 347.713 30.7549C347.713 31.7559 347.949 32.6634 348.422 33.4774C348.906 34.2804 349.539 34.9239 350.32 35.4079C351.112 35.8809 351.975 36.1174 352.91 36.1174ZM365.426 22.5049H368.858V39.0049H365.426V22.5049ZM367.175 20.1124C366.647 20.1124 366.207 19.9419 365.855 19.6009C365.503 19.2599 365.327 18.8309 365.327 18.3139C365.327 17.8079 365.503 17.3844 365.855 17.0434C366.207 16.6914 366.642 16.5154 367.159 16.5154C367.665 16.5154 368.094 16.6914 368.446 17.0434C368.798 17.3844 368.974 17.8079 368.974 18.3139C368.974 18.8309 368.798 19.2599 368.446 19.6009C368.105 19.9419 367.681 20.1124 367.175 20.1124ZM387.527 28.6594V39.0049H384.095V29.5009C384.095 28.7639 383.914 28.0929 383.551 27.4879C383.199 26.8829 382.72 26.4044 382.115 26.0524C381.521 25.6894 380.85 25.5079 380.102 25.5079C379.376 25.5079 378.711 25.6894 378.106 26.0524C377.501 26.4044 377.017 26.8829 376.654 27.4879C376.291 28.0929 376.109 28.7639 376.109 29.5009V39.0049H372.677V22.5049H376.109V24.2539C376.681 23.5719 377.385 23.0329 378.221 22.6369C379.057 22.2409 379.959 22.0429 380.927 22.0429C382.148 22.0429 383.259 22.3399 384.26 22.9339C385.261 23.5279 386.053 24.3254 386.636 25.3264C387.23 26.3274 387.527 27.4384 387.527 28.6594ZM403.055 22.5049H406.487V39.4339C406.487 40.5669 406.245 41.6119 405.761 42.5689C405.288 43.5259 404.645 44.3509 403.831 45.0439C403.017 45.7479 402.082 46.2924 401.026 46.6774C399.981 47.0624 398.886 47.2549 397.742 47.2549C396.587 47.2549 395.476 47.0074 394.409 46.5124C393.342 46.0284 392.402 45.3684 391.588 44.5324C390.785 43.6964 390.185 42.7504 389.789 41.6944L392.941 40.2754C393.161 40.9574 393.513 41.5624 393.997 42.0904C394.492 42.6184 395.064 43.0364 395.713 43.3444C396.373 43.6524 397.049 43.8064 397.742 43.8064C398.424 43.8064 399.079 43.6964 399.706 43.4764C400.344 43.2674 400.91 42.9704 401.405 42.5854C401.911 42.2004 402.313 41.7384 402.61 41.1994C402.907 40.6604 403.055 40.0719 403.055 39.4339V36.6454C402.516 37.4814 401.823 38.1579 400.976 38.6749C400.129 39.1809 399.145 39.4339 398.023 39.4339C396.857 39.4339 395.757 39.2084 394.723 38.7574C393.689 38.3064 392.781 37.6849 392 36.8929C391.219 36.0899 390.609 35.1659 390.169 34.1209C389.729 33.0759 389.509 31.9539 389.509 30.7549C389.509 29.5559 389.729 28.4339 390.169 27.3889C390.609 26.3329 391.219 25.4089 392 24.6169C392.781 23.8139 393.689 23.1869 394.723 22.7359C395.757 22.2849 396.857 22.0594 398.023 22.0594C399.145 22.0594 400.129 22.3179 400.976 22.8349C401.823 23.3409 402.516 24.0174 403.055 24.8644V22.5049ZM398.056 36.1174C399.013 36.1174 399.849 35.8754 400.564 35.3914C401.279 34.8964 401.834 34.2419 402.23 33.4279C402.626 32.6139 402.824 31.7229 402.824 30.7549C402.824 29.7649 402.621 28.8684 402.214 28.0654C401.818 27.2514 401.262 26.6024 400.547 26.1184C399.832 25.6234 399.002 25.3759 398.056 25.3759C397.132 25.3759 396.285 25.6179 395.515 26.1019C394.756 26.5859 394.151 27.2349 393.7 28.0489C393.249 28.8629 393.023 29.7649 393.023 30.7549C393.023 31.7449 393.249 32.6469 393.7 33.4609C394.162 34.2749 394.772 34.9239 395.531 35.4079C396.301 35.8809 397.143 36.1174 398.056 36.1174Z" fill="white"/>
<path d="M28.9063 0V9.99842H11.3952V19.9416H27.5726V29.94H11.3952V50H0V0H28.9063Z" fill="white"/>
<path d="M27.127 50V40.0016H44.638V30.0584H28.4606V20.06H44.638V0H56.0332V50H27.127Z" fill="white"/>
</svg>
